<svg xmlns="http://www.w3.org/2000/svg" xmlns:xlink="http://www.w3.org/1999/xlink" xmlns:lucid="lucid" width="1862" height="1300"><g transform="translate(-9 0)" lucid:page-tab-id="0_0"><path d="M0 0h1870.4v1323.2H0z" fill="#fff"/><path d="M106.2 832c0-1.66 1.34-3 3-3h154c1.66 0 3 1.34 3 3v74c0 1.66-1.34 3-3 3h-154c-1.66 0-3-1.34-3-3z" stroke="#b2b2b2" stroke-width="4" fill="#e5e5e5"/><use xlink:href="#a" transform="matrix(1,0,0,1,114.19999999999993,837) translate(13.574999999999996 24.799999999999997)"/><use xlink:href="#b" transform="matrix(1,0,0,1,114.19999999999993,837) translate(4.724999999999994 46.4)"/><path d="M1105 434v-92c0-1.66-1.34-3-3-3H691.68" stroke="#303030" stroke-width="2" fill="none"/><path d="M1106 435h-2v-1.03h2z" fill="#303030"/><path d="M669.16 339l21.52-12.73v25.46z" stroke="#303030" stroke-width="2" fill="#fff"/><path d="M860 437v-29.5c0-1.66-1.34-3-3-3H645.53c-1.65 0-3-1.34-3-3v-6.02" stroke="#303030" stroke-width="2" fill="none"/><path d="M861 438h-2v-1.03h2z" fill="#303030"/><path d="M642.53 372.96l12.73 21.52H629.8z" stroke="#303030" stroke-width="2" fill="#fff"/><path d="M585.26 247.5v29.22c0 .02 0 .03-.03.03-.02 0-.03 0-.03.03v5.74" stroke="#303030" stroke-width="2" fill="none"/><path d="M586.26 247.53h-2v-1.03h2z" fill="#303030"/><path d="M585.2 305.04l-12.73-21.52h25.46z" stroke="#303030" stroke-width="2" fill="#fff"/><path d="M586.26 190.5h-2v-24.45h2zm-.02-46.05h-2l-.04-23.63h2z" fill="#303030"/><path d="M586.26 191.5h-2v-1.03h2zM596.24 137.67l-1.72 1.02-9.32-15.77-9.32 15.76-1.72-1.03L585.2 119z" fill="#303030"/><use xlink:href="#c" transform="matrix(1,0,0,1,510.78124999999994,144.45) translate(0 14.4)"/><use xlink:href="#d" transform="matrix(1,0,0,1,510.78124999999994,144.45) translate(72.9 14.4)"/><use xlink:href="#e" transform="matrix(1,0,0,1,510.78124999999994,144.45) translate(133.9 14.4)"/><path d="M472.14 196.5c0-1.66 1.34-3 3-3H695.4c1.64 0 3 1.34 3 3v45c0 1.66-1.36 3-3 3H475.13c-1.66 0-3-1.34-3-3z" stroke="#b2b2b2" stroke-width="4" fill="#e5e5e5"/><use xlink:href="#f" transform="matrix(1,0,0,1,480.13749999999993,201.5) translate(0.09999999999999432 21.1)"/><path d="M505.2 312c0-1.66 1.34-3 3-3h154c1.66 0 3 1.34 3 3v54c0 1.66-1.34 3-3 3h-154c-1.66 0-3-1.34-3-3z" stroke="#b2b2b2" stroke-width="4" fill="#e5e5e5"/><use xlink:href="#g" transform="matrix(1,0,0,1,513.1999999999999,317) translate(29.025 25.6)"/><path d="M780 443c0-1.66 1.34-3 3-3h154c1.66 0 3 1.34 3 3v48c0 1.66-1.34 3-3 3H783c-1.66 0-3-1.34-3-3z" stroke="#b2b2b2" stroke-width="4" fill="#e5e5e5"/><use xlink:href="#h" transform="matrix(1,0,0,1,788,448) translate(4.074999999999989 22.6)"/><path d="M1055 440c0-1.66 1.34-3 3-3h94c1.66 0 3 1.34 3 3v54c0 1.66-1.34 3-3 3h-94c-1.66 0-3-1.34-3-3z" stroke="#b2b2b2" stroke-width="4" fill="#e5e5e5"/><use xlink:href="#i" transform="matrix(1,0,0,1,1063,445) translate(2.549999999999997 25.6)"/><path d="M880 1223c0-1.66 1.34-3 3-3h154c1.66 0 3 1.34 3 3v54c0 1.66-1.34 3-3 3H883c-1.66 0-3-1.34-3-3z" stroke="#b2b2b2" stroke-width="4" fill="#e5e5e5"/><use xlink:href="#j" transform="matrix(1,0,0,1,888,1228) translate(23.375 25.6)"/><path d="M1280 283c0-1.66 1.34-3 3-3h192.13c1.65 0 3 1.34 3 3v67c0 1.66-1.35 3-3 3H1283c-1.66 0-3-1.34-3-3z" stroke="#b2b2b2" stroke-width="4" fill="#e5e5e5"/><use xlink:href="#a" transform="matrix(1,0,0,1,1288,288) translate(33.074999999999996 21.299999999999997)"/><use xlink:href="#k" transform="matrix(1,0,0,1,1288,288) translate(2.7250000000000085 42.9)"/><path d="M539 1063c0-1.66 1.34-3 3-3h94c1.66 0 3 1.34 3 3v54c0 1.66-1.34 3-3 3h-94c-1.66 0-3-1.34-3-3z" stroke="#b2b2b2" stroke-width="4" fill="#e5e5e5"/><use xlink:href="#l" transform="matrix(1,0,0,1,547,1068) translate(9.024999999999999 25.6)"/><path d="M589 1123v124c0 1.66 1.34 3 3 3h267.5" stroke="#303030" stroke-width="2" fill="none"/><path d="M590 1123.03h-2V1122h2z" fill="#303030"/><path d="M874.76 1250l-14.26 4.64v-9.28z" stroke="#303030" stroke-width="2" fill="#303030"/><path d="M1070.94 1063c0-1.66 1.34-3 3-3h174c1.65 0 3 1.34 3 3v54c0 1.66-1.35 3-3 3h-174c-1.66 0-3-1.34-3-3z" stroke="#b2b2b2" stroke-width="4" fill="#e5e5e5"/><use xlink:href="#m" transform="matrix(1,0,0,1,1078.9375,1068) translate(-2.375 25.6)"/><path d="M1160.94 1123v44c0 1.66-1.35 3-3 3h-152.27c-1.66 0-3 1.34-3 3v26.5" stroke="#303030" stroke-width="2" fill="none"/><path d="M1161.94 1123.03h-2V1122h2z" fill="#303030"/><path d="M1002.67 1214.76l-4.64-14.26h9.27z" stroke="#303030" stroke-width="2" fill="#303030"/><path d="M870 1063c0-1.66 1.34-3 3-3h174c1.66 0 3 1.34 3 3v54c0 1.66-1.34 3-3 3H873c-1.66 0-3-1.34-3-3z" stroke="#b2b2b2" stroke-width="4" fill="#e5e5e5"/><use xlink:href="#n" transform="matrix(1,0,0,1,878,1068) translate(10.125 25.6)"/><path d="M960 1123v76.5" stroke="#303030" stroke-width="2" fill="none"/><path d="M961 1123.03h-2V1122h2z" fill="#303030"/><path d="M960 1214.76l-4.64-14.26h9.28z" stroke="#303030" stroke-width="2" fill="#303030"/><path d="M699 1063c0-1.66 1.34-3 3-3h114c1.66 0 3 1.34 3 3v54c0 1.66-1.34 3-3 3H702c-1.66 0-3-1.34-3-3z" stroke="#b2b2b2" stroke-width="4" fill="#e5e5e5"/><use xlink:href="#o" transform="matrix(1,0,0,1,707,1068) translate(2.9499999999999957 25.6)"/><path d="M759 1123v44c0 1.66 1.34 3 3 3h151c1.66 0 3 1.34 3 3v26.5" stroke="#303030" stroke-width="2" fill="none"/><path d="M760 1123.03h-2V1122h2z" fill="#303030"/><path d="M916 1214.76l-4.64-14.26h9.28z" stroke="#303030" stroke-width="2" fill="#303030"/><path d="M1272.5 1063c0-1.66 1.34-3 3-3h164c1.66 0 3 1.34 3 3v54c0 1.66-1.34 3-3 3h-164c-1.66 0-3-1.34-3-3z" stroke="#b2b2b2" stroke-width="4" fill="#e5e5e5"/><use xlink:href="#p" transform="matrix(1,0,0,1,1280.5,1068) translate(1.9749999999999943 25.6)"/><path d="M1357.5 1123v124c0 1.66-1.34 3-3 3h-294" stroke="#303030" stroke-width="2" fill="none"/><path d="M1358.5 1123.03h-2V1122h2z" fill="#303030"/><path d="M1045.24 1250l14.26-4.64v9.28z" stroke="#303030" stroke-width="2" fill="#303030"/><path d="M409.7 339h69.02" stroke="#303030" stroke-width="2" fill="none"/><path d="M409.73 340h-1.03v-2h1.03z" fill="#303030"/><path d="M501.24 339l-21.52 12.73v-25.46z" stroke="#303030" stroke-width="2" fill="#fff"/><path d="M256.45 287.5v-216c0-1.66 1.34-3 3-3h119.27" fill="none"/><path d="M256.45 287.5v-10.3m0-10.27v-20.57m0-10.3V215.5m0-10.3v-20.56m0-10.28V153.8m0-10.3v-20.57m0-10.3V92.08m0-10.28V71.5l.88-2.12 2.12-.88h9.94m9.93 0h19.88m9.94 0h19.88m9.94 0h19.88m9.94 0h9.94" stroke="#303030" stroke-width="2" fill="none"/><path d="M257.45 288.5h-2v-1.03h2z" fill="#303030"/><path d="M401.24 68.5l-21.52 12.73V55.77z" stroke="#303030" stroke-width="2" fill="#fff"/><path d="M256.45 420.25V656.5c0 1.66 1.34 3 3 3H483.2" stroke="#303030" stroke-width="2" fill="none"/><path d="M256.45 390.9l14.85 14.86-14.85 15.15-14.85-15.14z" stroke="#303030" stroke-width="2" fill="#303030"/><path d="M484.2 660.5h-1.03v-2h1.03z" fill="#303030"/><use xlink:href="#q" transform="matrix(1,0,0,1,264.44999999999993,449.6076544783958) translate(0 14.4)"/><use xlink:href="#q" transform="matrix(1,0,0,1,451.5860094652505,633.9) translate(0 14.4)"/><path d="M977 659.5H716.95" stroke="#303030" stroke-width="2" fill="none"/><path d="M978 660.5h-1.03v-2H978z" fill="#303030"/><path d="M687.6 659.5l14.86-14.85 15.15 14.85-15.14 14.85z" stroke="#303030" stroke-width="2" fill="#303030"/><use xlink:href="#q" transform="matrix(1,0,0,1,739.7042790248433,633.9) translate(0 14.4)"/><use xlink:href="#r" transform="matrix(1,0,0,1,945.5386669650156,633.9) translate(0 14.4)"/><path d="M585.2 711v45c0 1.66 1.34 3 3 3h221.67c1.65 0 3 1.34 3 3v32.02" fill="none"/><path d="M585.2 711v7.5m0 7.5v15m0 7.5v7.5l.88 2.12 2.12.88h10.56m10.55 0h21.12m10.56 0h21.1m10.56 0h21.12m10.55 0h21.12m10.56 0h21.1m10.56 0h21.12m10.55 0h10.57l2.12.88.87 2.12v10.67m0 10.67v10.68" stroke="#303030" stroke-width="2" fill="none"/><path d="M586.2 711.03h-2V710h2z" fill="#303030"/><path d="M812.87 816.54l-12.73-21.52h25.45z" stroke="#303030" stroke-width="2" fill="#fff"/><path d="M585.2 608V395.48" stroke="#303030" stroke-width="2" fill="none"/><path d="M586.2 609h-2v-1.03h2z" fill="#303030"/><path d="M585.2 372.96l12.73 21.52h-25.46z" stroke="#303030" stroke-width="2" fill="#fff"/><path d="M106.2 293.5c0-1.66 1.34-3 3-3h294.5c1.66 0 3 1.34 3 3v91c0 1.66-1.34 3-3 3H109.2c-1.66 0-3-1.34-3-3z" stroke="#b2b2b2" stroke-width="4" fill="#e5e5e5"/><path d="M106.2 328.1h300.5" stroke="#b2b2b2" stroke-width="4" fill="none"/><use xlink:href="#s" transform="matrix(1,0,0,1,114.19999999999993,298.5) translate(127.025 14.6)"/><use xlink:href="#t" transform="matrix(1,0,0,1,118.19999999999993,336.1) translate(0 14.799999999999999)"/><use xlink:href="#u" transform="matrix(1,0,0,1,118.19999999999993,336.1) translate(15.5 14.799999999999999)"/><use xlink:href="#v" transform="matrix(1,0,0,1,118.19999999999993,336.1) translate(130.35000000000002 14.799999999999999)"/><use xlink:href="#t" transform="matrix(1,0,0,1,118.19999999999993,336.1) translate(0 36.4)"/><use xlink:href="#w" transform="matrix(1,0,0,1,118.19999999999993,336.1) translate(15.5 36.4)"/><use xlink:href="#x" transform="matrix(1,0,0,1,118.19999999999993,336.1) translate(167.3 36.4)"/><path d="M486.2 614c0-1.66 1.34-3 3-3h192c1.66 0 3 1.34 3 3v91c0 1.66-1.34 3-3 3h-192c-1.66 0-3-1.34-3-3z" stroke="#b2b2b2" stroke-width="4" fill="#e5e5e5"/><path d="M486.2 648.6h198" stroke="#b2b2b2" stroke-width="4" fill="none"/><use xlink:href="#y" transform="matrix(1,0,0,1,494.19999999999993,619) translate(38.074999999999996 14.6)"/><use xlink:href="#t" transform="matrix(1,0,0,1,498.19999999999993,656.6) translate(0 14.799999999999999)"/><use xlink:href="#z" transform="matrix(1,0,0,1,498.19999999999993,656.6) translate(15.5 14.799999999999999)"/><use xlink:href="#A" transform="matrix(1,0,0,1,498.19999999999993,656.6) translate(0 36.4)"/><path d="M1030.33 608v-52.5c0-1.66-1.34-3-3-3H863c-1.66 0-3-1.34-3-3v-29.02" stroke="#303030" stroke-width="2" fill="none"/><path d="M1031.33 609h-2v-1.03h2z" fill="#303030"/><path d="M860 497.96l12.73 21.52h-25.46z" stroke="#303030" stroke-width="2" fill="#fff"/><path d="M980 614c0-1.66 1.34-3 3-3h244c1.66 0 3 1.34 3 3v91c0 1.66-1.34 3-3 3H983c-1.66 0-3-1.34-3-3z" stroke="#b2b2b2" stroke-width="4" fill="#e5e5e5"/><path d="M980 648.6h250" stroke="#b2b2b2" stroke-width="4" fill="none"/><use xlink:href="#B" transform="matrix(1,0,0,1,988,619) translate(51.57499999999999 14.6)"/><use xlink:href="#t" transform="matrix(1,0,0,1,992,656.6) translate(0 14.799999999999999)"/><use xlink:href="#C" transform="matrix(1,0,0,1,992,656.6) translate(15.5 14.799999999999999)"/><use xlink:href="#D" transform="matrix(1,0,0,1,992,656.6) translate(0 36.4)"/><path d="M1204.06 608v-84c0-1.66 1.35-3 3-3h169c1.66 0 3-1.34 3-3V379.48" fill="none"/><path d="M1204.06 608v-9.33m0-9.34v-18.66m0-9.34v-18.66m0-9.34V524l.88-2.12 2.12-.88h9.4m9.38 0h18.78m9.4 0h18.76m9.4 0h18.77m9.4 0h18.77m9.4 0h18.76m9.4 0h9.38l2.12-.88.88-2.12v-9.23m0-9.24v-18.47m0-9.23v-18.47m0-9.24v-18.46m0-9.24v-18.47m0-9.23v-9.24" stroke="#303030" stroke-width="2" fill="none"/><path d="M1205.06 609h-2v-1.03h2z" fill="#303030"/><path d="M1379.06 356.96l12.73 21.52h-25.46z" stroke="#303030" stroke-width="2" fill="#fff"/><path d="M1400 614c0-1.66 1.34-3 3-3h352c1.66 0 3 1.34 3 3v91c0 1.66-1.34 3-3 3h-352c-1.66 0-3-1.34-3-3z" stroke="#b2b2b2" stroke-width="4" fill="#e5e5e5"/><path d="M1400 648.6h358" stroke="#b2b2b2" stroke-width="4" fill="none"/><use xlink:href="#E" transform="matrix(1,0,0,1,1408,619) translate(68.1 14.6)"/><use xlink:href="#t" transform="matrix(1,0,0,1,1412,656.6) translate(0 14.799999999999999)"/><use xlink:href="#F" transform="matrix(1,0,0,1,1412,656.6) translate(15.5 14.799999999999999)"/><use xlink:href="#G" transform="matrix(1,0,0,1,1412,656.6) translate(0 36.4)"/><path d="M1105 500v78.25" stroke="#303030" stroke-width="2" fill="none"/><path d="M1106 500.03h-2V499h2z" fill="#303030"/><path d="M1105 607.6l-14.85-14.86L1105 577.6l14.85 15.14z" stroke="#303030" stroke-width="2" fill="#303030"/><use xlink:href="#H" transform="matrix(1,0,0,1,1087,506.02984519945113) translate(0 14.4)"/><use xlink:href="#H" transform="matrix(1,0,0,1,1087,551.645631940447) translate(0 14.4)"/><path d="M1397 659.5h-134.25" stroke="#303030" stroke-width="2" fill="none"/><path d="M1398 660.5h-1.03v-2h1.03z" fill="#303030"/><path d="M1233.4 659.5l14.86-14.85 15.15 14.85-15.14 14.85z" stroke="#303030" stroke-width="2" fill="#303030"/><use xlink:href="#H" transform="matrix(1,0,0,1,1369.947956334095,633.9) translate(0 14.4)"/><use xlink:href="#H" transform="matrix(1,0,0,1,1266.598736176935,633.9) translate(0 14.4)"/><path d="M988.42 760h-7.02l-1.56.64-.64 1.56v54.48h-2V761.8l1.1-2.7 2.7-1.1h7.42zm117.58-3.8l-1.1 2.7-2.7 1.1h-17.92v-2h17.52l1.56-.64.64-1.56V711h2z" fill="#303030"/><path d="M1106 711.03h-2V710h2zM989.24 799.83L978.2 818.5l-11.04-18.67 1.72-1.02 9.32 15.77 9.32-15.76z" fill="#303030"/><use xlink:href="#I" transform="matrix(1,0,0,1,988.425,748.2) translate(0 14.4)"/><path d="M721.4 823.5c0-1.66 1.34-3 3-3h354c1.66 0 3 1.34 3 3v150c0 1.66-1.34 3-3 3h-354c-1.66 0-3-1.34-3-3z" stroke="#b2b2b2" stroke-width="4" fill="#e5e5e5"/><path d="M721.4 879.7h360m-360 59.2h360" stroke="#b2b2b2" stroke-width="4" fill="none"/><use xlink:href="#a" transform="matrix(1,0,0,1,729.3999999999999,828.5) translate(113.57499999999999 14.799999999999999)"/><use xlink:href="#J" transform="matrix(1,0,0,1,729.3999999999999,828.5) translate(67.80000000000001 36.4)"/><use xlink:href="#t" transform="matrix(1,0,0,1,733.3999999999999,887.7) translate(0 14.799999999999999)"/><use xlink:href="#K" transform="matrix(1,0,0,1,733.3999999999999,887.7) translate(15.5 14.799999999999999)"/><use xlink:href="#L" transform="matrix(1,0,0,1,733.3999999999999,887.7) translate(0 36.4)"/><use xlink:href="#t" transform="matrix(1,0,0,1,733.3999999999999,946.9000000000001) translate(0 14.6)"/><use xlink:href="#M" transform="matrix(1,0,0,1,733.3999999999999,946.9000000000001) translate(15.5 14.6)"/><path d="M143.53 390.5v412.02" fill="none"/><path d="M143.53 390.5v10.37m0 10.37v20.74m0 10.37v20.73m0 10.37v20.74m0 10.36v20.74m0 10.37v20.73m0 10.37v20.74m0 10.38v21.17m0 10.8v21.57m0 10.8v21.58m0 10.8v21.58m0 10.8v21.57m0 10.8v21.58m0 10.8v10.8" stroke="#303030" stroke-width="2" fill="none"/><path d="M144.53 390.53h-2v-1.03h2z" fill="#303030"/><path d="M143.53 825.03l-12.72-21.5h25.46z" stroke="#303030" stroke-width="2" fill="#fff"/><path d="M539.53 711v45c0 1.66-1.34 3-3 3H249.2c-1.66 0-3 1.34-3 3v40.52" fill="none"/><path d="M539.53 711v7.5m0 7.5v15m0 7.5v7.5l-.88 2.12-2.12.88h-9.57m-9.58 0h-19.16m-9.58 0H469.5m-9.6 0h-19.14m-9.58 0h-19.16m-9.58 0H383.3m-9.6 0h-19.14m-9.58 0h-19.16m-9.58 0H297.1m-9.6 0h-19.14m-9.58 0h-9.58l-2.12.88-.88 2.12v13.5m0 13.5v13.52" stroke="#303030" stroke-width="2" fill="none"/><path d="M540.53 711.03h-2V710h2z" fill="#303030"/><path d="M246.2 825.04l-12.73-21.52h25.46z" stroke="#303030" stroke-width="2" fill="#fff"/><path d="M21 1000h1838" fill="none"/><path d="M22 1000c0 .55-.45 1-1 1s-1-.45-1-1 .45-1 1-1 1 .45 1 1zm4 0c0 .55-.45 1-1 1-.56 0-1-.45-1-1s.44-1 1-1c.55 0 1 .45 1 1zm4 0c0 .55-.46 1-1 1-.56 0-1-.45-1-1s.44-1 1-1c.54 0 1 .45 1 1zm4 0c0 .55-.46 1-1 1-.57 0-1-.45-1-1s.43-1 1-1c.54 0 1 .45 1 1zm3.98 0c0 .55-.45 1-1 1s-1-.45-1-1 .45-1 1-1 1 .45 1 1zm4 0c0 .55-.45 1-1 1s-1-.45-1-1 .45-1 1-1 1 .45 1 1zm4 0c0 .55-.45 1-1 1-.56 0-1-.45-1-1s.44-1 1-1c.55 0 1 .45 1 1zm4 0c0 .55-.46 1-1 1-.56 0-1-.45-1-1s.44-1 1-1c.54 0 1 .45 1 1zm4 0c0 .55-.46 1-1 1-.57 0-1-.45-1-1s.43-1 1-1c.54 0 1 .45 1 1zm3.98 0c0 .55-.45 1-1 1s-1-.45-1-1 .45-1 1-1 1 .45 1 1zm4 0c0 .55-.45 1-1 1-.56 0-1-.45-1-1s.44-1 1-1c.55 0 1 .45 1 1zm4 0c0 .55-.46 1-1 1-.56 0-1-.45-1-1s.44-1 1-1c.54 0 1 .45 1 1zm4 0c0 .55-.46 1-1 1-.56 0-1-.45-1-1s.44-1 1-1c.54 0 1 .45 1 1zm3.98 0c0 .55-.44 1-1 1-.55 0-1-.45-1-1s.45-1 1-1c.56 0 1 .45 1 1zm4 0c0 .55-.45 1-1 1s-1-.45-1-1 .45-1 1-1 1 .45 1 1zm4 0c0 .55-.45 1-1 1-.56 0-1-.45-1-1s.44-1 1-1c.55 0 1 .45 1 1zm4 0c0 .55-.46 1-1 1-.56 0-1-.45-1-1s.44-1 1-1c.54 0 1 .45 1 1zm4 0c0 .55-.46 1-1 1-.57 0-1-.45-1-1s.43-1 1-1c.54 0 1 .45 1 1zm3.98 0c0 .55-.45 1-1 1s-1-.45-1-1 .45-1 1-1 1 .45 1 1zm4 0c0 .55-.45 1-1 1s-1-.45-1-1 .45-1 1-1 1 .45 1 1zm4 0c0 .55-.45 1-1 1-.56 0-1-.45-1-1s.44-1 1-1c.55 0 1 .45 1 1zm4 0c0 .55-.46 1-1 1-.56 0-1-.45-1-1s.44-1 1-1c.54 0 1 .45 1 1zm3.98 0c0 .55-.44 1-1 1-.55 0-1-.45-1-1s.45-1 1-1c.56 0 1 .45 1 1zm4 0c0 .55-.45 1-1 1s-1-.45-1-1 .45-1 1-1 1 .45 1 1zm4 0c0 .55-.45 1-1 1-.56 0-1-.45-1-1s.44-1 1-1c.55 0 1 .45 1 1zm4 0c0 .55-.46 1-1 1-.56 0-1-.45-1-1s.44-1 1-1c.54 0 1 .45 1 1zm4 0c0 .55-.46 1-1 1-.57 0-1-.45-1-1s.43-1 1-1c.54 0 1 .45 1 1zm3.98 0c0 .55-.45 1-1 1s-1-.45-1-1 .45-1 1-1 1 .45 1 1zm4 0c0 .55-.45 1-1 1s-1-.45-1-1 .45-1 1-1 1 .45 1 1zm4 0c0 .55-.45 1-1 1-.56 0-1-.45-1-1s.44-1 1-1c.55 0 1 .45 1 1zm4 0c0 .55-.46 1-1 1-.56 0-1-.45-1-1s.44-1 1-1c.54 0 1 .45 1 1zm4 0c0 .55-.46 1-1 1-.57 0-1-.45-1-1s.43-1 1-1c.54 0 1 .45 1 1zm3.98 0c0 .55-.45 1-1 1s-1-.45-1-1 .45-1 1-1 1 .45 1 1zm4 0c0 .55-.45 1-1 1-.56 0-1-.45-1-1s.44-1 1-1c.55 0 1 .45 1 1zm4 0c0 .55-.46 1-1 1-.56 0-1-.45-1-1s.44-1 1-1c.54 0 1 .45 1 1zm4 0c0 .55-.46 1-1 1-.56 0-1-.45-1-1s.44-1 1-1c.54 0 1 .45 1 1zm3.98 0c0 .55-.44 1-1 1-.55 0-1-.45-1-1s.45-1 1-1c.56 0 1 .45 1 1zm4 0c0 .55-.45 1-1 1s-1-.45-1-1 .45-1 1-1 1 .45 1 1zm4 0c0 .55-.45 1-1 1-.56 0-1-.45-1-1s.44-1 1-1c.55 0 1 .45 1 1zm4 0c0 .55-.46 1-1 1-.56 0-1-.45-1-1s.44-1 1-1c.54 0 1 .45 1 1zm4 0c0 .55-.46 1-1 1-.57 0-1-.45-1-1s.43-1 1-1c.54 0 1 .45 1 1zm3.98 0c0 .55-.45 1-1 1s-1-.45-1-1 .45-1 1-1 1 .45 1 1zm4 0c0 .55-.45 1-1 1s-1-.45-1-1 .45-1 1-1 1 .45 1 1zm4 0c0 .55-.45 1-1 1-.56 0-1-.45-1-1s.44-1 1-1c.55 0 1 .45 1 1zm4 0c0 .55-.46 1-1 1-.56 0-1-.45-1-1s.44-1 1-1c.54 0 1 .45 1 1zm3.98 0c0 .55-.44 1-1 1-.55 0-1-.45-1-1s.45-1 1-1c.56 0 1 .45 1 1zm4 0c0 .55-.45 1-1 1s-1-.45-1-1 .45-1 1-1 1 .45 1 1zm4 0c0 .55-.45 1-1 1-.56 0-1-.45-1-1s.44-1 1-1c.55 0 1 .45 1 1zm4 0c0 .55-.46 1-1 1-.56 0-1-.45-1-1s.44-1 1-1c.54 0 1 .45 1 1zm4 0c0 .55-.46 1-1 1-.57 0-1-.45-1-1s.43-1 1-1c.54 0 1 .45 1 1zm3.98 0c0 .55-.45 1-1 1s-1-.45-1-1 .45-1 1-1 1 .45 1 1zm4 0c0 .55-.45 1-1 1s-1-.45-1-1 .45-1 1-1 1 .45 1 1zm4 0c0 .55-.45 1-1 1-.56 0-1-.45-1-1s.44-1 1-1c.55 0 1 .45 1 1zm4 0c0 .55-.46 1-1 1-.56 0-1-.45-1-1s.44-1 1-1c.54 0 1 .45 1 1zm4 0c0 .55-.46 1-1 1-.57 0-1-.45-1-1s.43-1 1-1c.54 0 1 .45 1 1zm3.98 0c0 .55-.45 1-1 1s-1-.45-1-1 .45-1 1-1 1 .45 1 1zm4 0c0 .55-.45 1-1 1-.56 0-1-.45-1-1s.44-1 1-1c.55 0 1 .45 1 1zm4 0c0 .55-.46 1-1 1-.56 0-1-.45-1-1s.44-1 1-1c.54 0 1 .45 1 1zm4 0c0 .55-.46 1-1 1-.56 0-1-.45-1-1s.44-1 1-1c.54 0 1 .45 1 1zm3.98 0c0 .55-.44 1-1 1-.55 0-1-.45-1-1s.45-1 1-1c.56 0 1 .45 1 1zm4 0c0 .55-.45 1-1 1s-1-.45-1-1 .45-1 1-1 1 .45 1 1zm4 0c0 .55-.45 1-1 1-.56 0-1-.45-1-1s.44-1 1-1c.55 0 1 .45 1 1zm4 0c0 .55-.46 1-1 1-.56 0-1-.45-1-1s.44-1 1-1c.54 0 1 .45 1 1zm4 0c0 .55-.46 1-1 1-.57 0-1-.45-1-1s.43-1 1-1c.54 0 1 .45 1 1zm3.98 0c0 .55-.45 1-1 1s-1-.45-1-1 .45-1 1-1 1 .45 1 1zm4 0c0 .55-.45 1-1 1s-1-.45-1-1 .45-1 1-1 1 .45 1 1zm4 0c0 .55-.45 1-1 1-.56 0-1-.45-1-1s.44-1 1-1c.55 0 1 .45 1 1zm4 0c0 .55-.46 1-1 1-.56 0-1-.45-1-1s.44-1 1-1c.54 0 1 .45 1 1zm3.98 0c0 .55-.44 1-1 1-.55 0-1-.45-1-1s.45-1 1-1c.56 0 1 .45 1 1zm4 0c0 .55-.45 1-1 1s-1-.45-1-1 .45-1 1-1 1 .45 1 1zm4 0c0 .55-.45 1-1 1-.56 0-1-.45-1-1s.44-1 1-1c.55 0 1 .45 1 1zm4 0c0 .55-.46 1-1 1-.56 0-1-.45-1-1s.44-1 1-1c.54 0 1 .45 1 1zm4 0c0 .55-.46 1-1 1-.57 0-1-.45-1-1s.43-1 1-1c.54 0 1 .45 1 1zm3.98 0c0 .55-.45 1-1 1s-1-.45-1-1 .45-1 1-1 1 .45 1 1zm4 0c0 .55-.45 1-1 1s-1-.45-1-1 .45-1 1-1 1 .45 1 1zm4 0c0 .55-.45 1-1 1-.56 0-1-.45-1-1s.44-1 1-1c.55 0 1 .45 1 1zm4 0c0 .55-.46 1-1 1-.56 0-1-.45-1-1s.44-1 1-1c.54 0 1 .45 1 1zm4 0c0 .55-.46 1-1 1-.57 0-1-.45-1-1s.43-1 1-1c.54 0 1 .45 1 1zm3.98 0c0 .55-.45 1-1 1s-1-.45-1-1 .45-1 1-1 1 .45 1 1zm4 0c0 .55-.45 1-1 1-.56 0-1-.45-1-1s.44-1 1-1c.55 0 1 .45 1 1zm4 0c0 .55-.46 1-1 1-.56 0-1-.45-1-1s.44-1 1-1c.54 0 1 .45 1 1zm4 0c0 .55-.46 1-1 1-.56 0-1-.45-1-1s.44-1 1-1c.54 0 1 .45 1 1zm3.98 0c0 .55-.44 1-1 1-.55 0-1-.45-1-1s.45-1 1-1c.56 0 1 .45 1 1zm4 0c0 .55-.45 1-1 1s-1-.45-1-1 .45-1 1-1 1 .45 1 1zm4 0c0 .55-.45 1-1 1-.56 0-1-.45-1-1s.44-1 1-1c.55 0 1 .45 1 1zm4 0c0 .55-.46 1-1 1-.56 0-1-.45-1-1s.44-1 1-1c.54 0 1 .45 1 1zm4 0c0 .55-.46 1-1 1-.57 0-1-.45-1-1s.43-1 1-1c.54 0 1 .45 1 1zm3.98 0c0 .55-.45 1-1 1s-1-.45-1-1 .45-1 1-1 1 .45 1 1zm4 0c0 .55-.45 1-1 1s-1-.45-1-1 .45-1 1-1 1 .45 1 1zm4 0c0 .55-.45 1-1 1-.56 0-1-.45-1-1s.44-1 1-1c.55 0 1 .45 1 1zm4 0c0 .55-.46 1-1 1-.56 0-1-.45-1-1s.44-1 1-1c.54 0 1 .45 1 1zm3.98 0c0 .55-.44 1-1 1-.55 0-1-.45-1-1s.45-1 1-1c.56 0 1 .45 1 1zm4 0c0 .55-.45 1-1 1s-1-.45-1-1 .45-1 1-1 1 .45 1 1zm4 0c0 .55-.45 1-1 1-.56 0-1-.45-1-1s.44-1 1-1c.55 0 1 .45 1 1zm4 0c0 .55-.46 1-1 1-.56 0-1-.45-1-1s.44-1 1-1c.54 0 1 .45 1 1zm4 0c0 .55-.46 1-1 1-.57 0-1-.45-1-1s.43-1 1-1c.54 0 1 .45 1 1zm3.98 0c0 .55-.45 1-1 1s-1-.45-1-1 .45-1 1-1 1 .45 1 1zm4 0c0 .55-.45 1-1 1s-1-.45-1-1 .45-1 1-1 1 .45 1 1zm4 0c0 .55-.45 1-1 1-.56 0-1-.45-1-1s.44-1 1-1c.55 0 1 .45 1 1zm4 0c0 .55-.46 1-1 1-.56 0-1-.45-1-1s.44-1 1-1c.54 0 1 .45 1 1zm4 0c0 .55-.46 1-1 1-.57 0-1-.45-1-1s.43-1 1-1c.54 0 1 .45 1 1zm3.98 0c0 .55-.45 1-1 1s-1-.45-1-1 .45-1 1-1 1 .45 1 1zm4 0c0 .55-.45 1-1 1-.56 0-1-.45-1-1s.44-1 1-1c.55 0 1 .45 1 1zm4 0c0 .55-.46 1-1 1-.56 0-1-.45-1-1s.44-1 1-1c.54 0 1 .45 1 1zm4 0c0 .55-.46 1-1 1-.56 0-1-.45-1-1s.44-1 1-1c.54 0 1 .45 1 1zm3.98 0c0 .55-.44 1-1 1-.55 0-1-.45-1-1s.45-1 1-1c.56 0 1 .45 1 1zm4 0c0 .55-.45 1-1 1s-1-.45-1-1 .45-1 1-1 1 .45 1 1zm4 0c0 .55-.45 1-1 1-.56 0-1-.45-1-1s.44-1 1-1c.55 0 1 .45 1 1zm4 0c0 .55-.46 1-1 1-.56 0-1-.45-1-1s.44-1 1-1c.54 0 1 .45 1 1zm4 0c0 .55-.46 1-1 1-.57 0-1-.45-1-1s.43-1 1-1c.54 0 1 .45 1 1zm3.98 0c0 .55-.45 1-1 1s-1-.45-1-1 .45-1 1-1 1 .45 1 1zm4 0c0 .55-.45 1-1 1s-1-.45-1-1 .45-1 1-1 1 .45 1 1zm4 0c0 .55-.45 1-1 1-.56 0-1-.45-1-1s.44-1 1-1c.55 0 1 .45 1 1zm4 0c0 .55-.46 1-1 1-.56 0-1-.45-1-1s.44-1 1-1c.54 0 1 .45 1 1zm3.98 0c0 .55-.44 1-1 1-.55 0-1-.45-1-1s.45-1 1-1c.56 0 1 .45 1 1zm4 0c0 .55-.45 1-1 1s-1-.45-1-1 .45-1 1-1 1 .45 1 1zm4 0c0 .55-.45 1-1 1-.56 0-1-.45-1-1s.44-1 1-1c.55 0 1 .45 1 1zm4 0c0 .55-.46 1-1 1-.56 0-1-.45-1-1s.44-1 1-1c.54 0 1 .45 1 1zm4 0c0 .55-.46 1-1 1-.57 0-1-.45-1-1s.43-1 1-1c.54 0 1 .45 1 1zm3.98 0c0 .55-.45 1-1 1s-1-.45-1-1 .45-1 1-1 1 .45 1 1zm4 0c0 .55-.45 1-1 1s-1-.45-1-1 .45-1 1-1 1 .45 1 1zm4 0c0 .55-.45 1-1 1-.56 0-1-.45-1-1s.44-1 1-1c.55 0 1 .45 1 1zm4 0c0 .55-.46 1-1 1-.56 0-1-.45-1-1s.44-1 1-1c.54 0 1 .45 1 1zm4 0c0 .55-.46 1-1 1-.57 0-1-.45-1-1s.43-1 1-1c.54 0 1 .45 1 1zm3.98 0c0 .55-.45 1-1 1s-1-.45-1-1 .45-1 1-1 1 .45 1 1zm4 0c0 .55-.45 1-1 1-.56 0-1-.45-1-1s.44-1 1-1c.55 0 1 .45 1 1zm4 0c0 .55-.46 1-1 1-.56 0-1-.45-1-1s.44-1 1-1c.54 0 1 .45 1 1zm4 0c0 .55-.46 1-1 1-.56 0-1-.45-1-1s.44-1 1-1c.54 0 1 .45 1 1zm3.98 0c0 .55-.44 1-1 1-.55 0-1-.45-1-1s.45-1 1-1c.56 0 1 .45 1 1zm4 0c0 .55-.45 1-1 1s-1-.45-1-1 .45-1 1-1 1 .45 1 1zm4 0c0 .55-.45 1-1 1-.56 0-1-.45-1-1s.44-1 1-1c.55 0 1 .45 1 1zm4 0c0 .55-.46 1-1 1-.56 0-1-.45-1-1s.44-1 1-1c.54 0 1 .45 1 1zm4 0c0 .55-.46 1-1 1-.57 0-1-.45-1-1s.43-1 1-1c.54 0 1 .45 1 1zm3.98 0c0 .55-.45 1-1 1s-1-.45-1-1 .45-1 1-1 1 .45 1 1zm4 0c0 .55-.45 1-1 1s-1-.45-1-1 .45-1 1-1 1 .45 1 1zm4 0c0 .55-.45 1-1 1-.56 0-1-.45-1-1s.44-1 1-1c.55 0 1 .45 1 1zm4 0c0 .55-.46 1-1 1-.56 0-1-.45-1-1s.44-1 1-1c.54 0 1 .45 1 1zm3.98 0c0 .55-.44 1-1 1-.55 0-1-.45-1-1s.45-1 1-1c.56 0 1 .45 1 1zm4 0c0 .55-.45 1-1 1s-1-.45-1-1 .45-1 1-1 1 .45 1 1zm4 0c0 .55-.45 1-1 1-.56 0-1-.45-1-1s.44-1 1-1c.55 0 1 .45 1 1zm4 0c0 .55-.46 1-1 1-.56 0-1-.45-1-1s.44-1 1-1c.54 0 1 .45 1 1zm4 0c0 .55-.46 1-1 1-.57 0-1-.45-1-1s.43-1 1-1c.54 0 1 .45 1 1zm3.98 0c0 .55-.45 1-1 1s-1-.45-1-1 .45-1 1-1 1 .45 1 1zm4 0c0 .55-.45 1-1 1s-1-.45-1-1 .45-1 1-1 1 .45 1 1zm4 0c0 .55-.45 1-1 1-.56 0-1-.45-1-1s.44-1 1-1c.55 0 1 .45 1 1zm4 0c0 .55-.46 1-1 1-.56 0-1-.45-1-1s.44-1 1-1c.54 0 1 .45 1 1zm4 0c0 .55-.46 1-1 1-.57 0-1-.45-1-1s.43-1 1-1c.54 0 1 .45 1 1zm3.98 0c0 .55-.45 1-1 1s-1-.45-1-1 .45-1 1-1 1 .45 1 1zm4 0c0 .55-.45 1-1 1-.56 0-1-.45-1-1s.44-1 1-1c.55 0 1 .45 1 1zm4 0c0 .55-.46 1-1 1-.56 0-1-.45-1-1s.44-1 1-1c.54 0 1 .45 1 1zm4 0c0 .55-.46 1-1 1-.56 0-1-.45-1-1s.44-1 1-1c.54 0 1 .45 1 1zm3.98 0c0 .55-.44 1-1 1-.55 0-1-.45-1-1s.45-1 1-1c.56 0 1 .45 1 1zm4 0c0 .55-.45 1-1 1s-1-.45-1-1 .45-1 1-1 1 .45 1 1zm4 0c0 .55-.45 1-1 1-.56 0-1-.45-1-1s.44-1 1-1c.55 0 1 .45 1 1zm4 0c0 .55-.46 1-1 1-.56 0-1-.45-1-1s.44-1 1-1c.54 0 1 .45 1 1zm4 0c0 .55-.46 1-1 1-.57 0-1-.45-1-1s.43-1 1-1c.54 0 1 .45 1 1zm3.98 0c0 .55-.45 1-1 1s-1-.45-1-1 .45-1 1-1 1 .45 1 1zm4 0c0 .55-.45 1-1 1s-1-.45-1-1 .45-1 1-1 1 .45 1 1zm4 0c0 .55-.45 1-1 1-.56 0-1-.45-1-1s.44-1 1-1c.55 0 1 .45 1 1zm4 0c0 .55-.46 1-1 1-.56 0-1-.45-1-1s.44-1 1-1c.54 0 1 .45 1 1zm3.98 0c0 .55-.44 1-1 1-.55 0-1-.45-1-1s.45-1 1-1c.56 0 1 .45 1 1zm4 0c0 .55-.45 1-1 1s-1-.45-1-1 .45-1 1-1 1 .45 1 1zm4 0c0 .55-.45 1-1 1-.56 0-1-.45-1-1s.44-1 1-1c.55 0 1 .45 1 1zm4 0c0 .55-.46 1-1 1-.56 0-1-.45-1-1s.44-1 1-1c.54 0 1 .45 1 1zm4 0c0 .55-.46 1-1 1-.57 0-1-.45-1-1s.43-1 1-1c.54 0 1 .45 1 1zm3.98 0c0 .55-.45 1-1 1s-1-.45-1-1 .45-1 1-1 1 .45 1 1zm4 0c0 .55-.45 1-1 1s-1-.45-1-1 .45-1 1-1 1 .45 1 1zm4 0c0 .55-.45 1-1 1-.56 0-1-.45-1-1s.44-1 1-1c.55 0 1 .45 1 1zm4 0c0 .55-.46 1-1 1-.56 0-1-.45-1-1s.44-1 1-1c.54 0 1 .45 1 1zm4 0c0 .55-.46 1-1 1-.57 0-1-.45-1-1s.43-1 1-1c.54 0 1 .45 1 1zm3.98 0c0 .55-.45 1-1 1s-1-.45-1-1 .45-1 1-1 1 .45 1 1zm4 0c0 .55-.45 1-1 1-.56 0-1-.45-1-1s.44-1 1-1c.55 0 1 .45 1 1zm4 0c0 .55-.46 1-1 1-.56 0-1-.45-1-1s.44-1 1-1c.54 0 1 .45 1 1zm4 0c0 .55-.46 1-1 1-.56 0-1-.45-1-1s.44-1 1-1c.54 0 1 .45 1 1zm3.98 0c0 .55-.44 1-1 1-.55 0-1-.45-1-1s.45-1 1-1c.56 0 1 .45 1 1zm4 0c0 .55-.45 1-1 1s-1-.45-1-1 .45-1 1-1 1 .45 1 1zm4 0c0 .55-.45 1-1 1-.56 0-1-.45-1-1s.44-1 1-1c.55 0 1 .45 1 1zm4 0c0 .55-.46 1-1 1-.56 0-1-.45-1-1s.44-1 1-1c.54 0 1 .45 1 1zm4 0c0 .55-.46 1-1 1-.57 0-1-.45-1-1s.43-1 1-1c.54 0 1 .45 1 1zm3.98 0c0 .55-.45 1-1 1s-1-.45-1-1 .45-1 1-1 1 .45 1 1zm4 0c0 .55-.45 1-1 1s-1-.45-1-1 .45-1 1-1 1 .45 1 1zm4 0c0 .55-.45 1-1 1-.56 0-1-.45-1-1s.44-1 1-1c.55 0 1 .45 1 1zm4 0c0 .55-.46 1-1 1-.56 0-1-.45-1-1s.44-1 1-1c.54 0 1 .45 1 1zm3.98 0c0 .55-.44 1-1 1-.55 0-1-.45-1-1s.45-1 1-1c.56 0 1 .45 1 1zm4 0c0 .55-.45 1-1 1s-1-.45-1-1 .45-1 1-1 1 .45 1 1zm4 0c0 .55-.45 1-1 1-.56 0-1-.45-1-1s.44-1 1-1c.55 0 1 .45 1 1zm4 0c0 .55-.46 1-1 1-.56 0-1-.45-1-1s.44-1 1-1c.54 0 1 .45 1 1zm4 0c0 .55-.46 1-1 1-.57 0-1-.45-1-1s.43-1 1-1c.54 0 1 .45 1 1zm3.98 0c0 .55-.45 1-1 1s-1-.45-1-1 .45-1 1-1 1 .45 1 1zm4 0c0 .55-.45 1-1 1s-1-.45-1-1 .45-1 1-1 1 .45 1 1zm4 0c0 .55-.45 1-1 1-.56 0-1-.45-1-1s.44-1 1-1c.55 0 1 .45 1 1zm4 0c0 .55-.46 1-1 1-.56 0-1-.45-1-1s.44-1 1-1c.54 0 1 .45 1 1zm4 0c0 .55-.46 1-1 1-.57 0-1-.45-1-1s.43-1 1-1c.54 0 1 .45 1 1zm3.98 0c0 .55-.45 1-1 1s-1-.45-1-1 .45-1 1-1 1 .45 1 1zm4 0c0 .55-.45 1-1 1-.56 0-1-.45-1-1s.44-1 1-1c.55 0 1 .45 1 1zm4 0c0 .55-.46 1-1 1-.56 0-1-.45-1-1s.44-1 1-1c.54 0 1 .45 1 1zm4 0c0 .55-.46 1-1 1-.56 0-1-.45-1-1s.44-1 1-1c.54 0 1 .45 1 1zm3.98 0c0 .55-.44 1-1 1-.55 0-1-.45-1-1s.45-1 1-1c.56 0 1 .45 1 1zm4 0c0 .55-.45 1-1 1s-1-.45-1-1 .45-1 1-1 1 .45 1 1zm4 0c0 .55-.45 1-1 1-.56 0-1-.45-1-1s.44-1 1-1c.55 0 1 .45 1 1zm4 0c0 .55-.46 1-1 1-.56 0-1-.45-1-1s.44-1 1-1c.54 0 1 .45 1 1zm4 0c0 .55-.46 1-1 1-.57 0-1-.45-1-1s.43-1 1-1c.54 0 1 .45 1 1zm3.98 0c0 .55-.45 1-1 1s-1-.45-1-1 .45-1 1-1 1 .45 1 1zm4 0c0 .55-.45 1-1 1s-1-.45-1-1 .45-1 1-1 1 .45 1 1zm4 0c0 .55-.45 1-1 1-.56 0-1-.45-1-1s.44-1 1-1c.55 0 1 .45 1 1zm4 0c0 .55-.46 1-1 1-.56 0-1-.45-1-1s.44-1 1-1c.54 0 1 .45 1 1zm3.98 0c0 .55-.44 1-1 1-.55 0-1-.45-1-1s.45-1 1-1c.56 0 1 .45 1 1zm4 0c0 .55-.45 1-1 1s-1-.45-1-1 .45-1 1-1 1 .45 1 1zm4 0c0 .55-.45 1-1 1-.56 0-1-.45-1-1s.44-1 1-1c.55 0 1 .45 1 1zm4 0c0 .55-.46 1-1 1-.56 0-1-.45-1-1s.44-1 1-1c.54 0 1 .45 1 1zm4 0c0 .55-.46 1-1 1-.57 0-1-.45-1-1s.43-1 1-1c.54 0 1 .45 1 1zm3.98 0c0 .55-.45 1-1 1s-1-.45-1-1 .45-1 1-1 1 .45 1 1zm4 0c0 .55-.45 1-1 1s-1-.45-1-1 .45-1 1-1 1 .45 1 1zm4 0c0 .55-.45 1-1 1-.56 0-1-.45-1-1s.44-1 1-1c.55 0 1 .45 1 1zm4 0c0 .55-.46 1-1 1-.56 0-1-.45-1-1s.44-1 1-1c.54 0 1 .45 1 1zm4 0c0 .55-.46 1-1 1-.57 0-1-.45-1-1s.43-1 1-1c.54 0 1 .45 1 1zm3.98 0c0 .55-.45 1-1 1s-1-.45-1-1 .45-1 1-1 1 .45 1 1zm4 0c0 .55-.45 1-1 1-.56 0-1-.45-1-1s.44-1 1-1c.55 0 1 .45 1 1zm4 0c0 .55-.46 1-1 1-.56 0-1-.45-1-1s.44-1 1-1c.54 0 1 .45 1 1zm4 0c0 .55-.46 1-1 1-.56 0-1-.45-1-1s.44-1 1-1c.54 0 1 .45 1 1zm3.98 0c0 .55-.44 1-1 1-.55 0-1-.45-1-1s.45-1 1-1c.56 0 1 .45 1 1zm4 0c0 .55-.45 1-1 1s-1-.45-1-1 .45-1 1-1 1 .45 1 1zm4 0c0 .55-.45 1-1 1-.56 0-1-.45-1-1s.44-1 1-1c.55 0 1 .45 1 1zm4 0c0 .55-.46 1-1 1-.56 0-1-.45-1-1s.44-1 1-1c.54 0 1 .45 1 1zm4 0c0 .55-.46 1-1 1-.57 0-1-.45-1-1s.43-1 1-1c.54 0 1 .45 1 1zm3.98 0c0 .55-.45 1-1 1s-1-.45-1-1 .45-1 1-1 1 .45 1 1zm4 0c0 .55-.45 1-1 1s-1-.45-1-1 .45-1 1-1 1 .45 1 1zm4 0c0 .55-.45 1-1 1-.56 0-1-.45-1-1s.44-1 1-1c.55 0 1 .45 1 1zm4 0c0 .55-.46 1-1 1-.56 0-1-.45-1-1s.44-1 1-1c.54 0 1 .45 1 1zm3.98 0c0 .55-.44 1-1 1-.55 0-1-.45-1-1s.45-1 1-1c.56 0 1 .45 1 1zm4 0c0 .55-.45 1-1 1s-1-.45-1-1 .45-1 1-1 1 .45 1 1zm4 0c0 .55-.45 1-1 1-.56 0-1-.45-1-1s.44-1 1-1c.55 0 1 .45 1 1zm4 0c0 .55-.46 1-1 1-.56 0-1-.45-1-1s.44-1 1-1c.54 0 1 .45 1 1zm4 0c0 .55-.46 1-1 1-.57 0-1-.45-1-1s.43-1 1-1c.54 0 1 .45 1 1zm3.98 0c0 .55-.45 1-1 1s-1-.45-1-1 .45-1 1-1 1 .45 1 1zm4 0c0 .55-.45 1-1 1s-1-.45-1-1 .45-1 1-1 1 .45 1 1zm4 0c0 .55-.45 1-1 1-.56 0-1-.45-1-1s.44-1 1-1c.55 0 1 .45 1 1zm4 0c0 .55-.46 1-1 1-.56 0-1-.45-1-1s.44-1 1-1c.54 0 1 .45 1 1zm4 0c0 .55-.46 1-1 1-.57 0-1-.45-1-1s.43-1 1-1c.54 0 1 .45 1 1zm3.98 0c0 .55-.45 1-1 1s-1-.45-1-1 .45-1 1-1 1 .45 1 1zm4 0c0 .55-.45 1-1 1-.56 0-1-.45-1-1s.44-1 1-1c.55 0 1 .45 1 1zm4 0c0 .55-.46 1-1 1-.56 0-1-.45-1-1s.44-1 1-1c.54 0 1 .45 1 1zm4 0c0 .55-.46 1-1 1-.56 0-1-.45-1-1s.44-1 1-1c.54 0 1 .45 1 1zm3.98 0c0 .55-.44 1-1 1-.55 0-1-.45-1-1s.45-1 1-1c.56 0 1 .45 1 1zm4 0c0 .55-.45 1-1 1s-1-.45-1-1 .45-1 1-1 1 .45 1 1zm4 0c0 .55-.45 1-1 1-.56 0-1-.45-1-1s.44-1 1-1c.55 0 1 .45 1 1zm4 0c0 .55-.46 1-1 1-.56 0-1-.45-1-1s.44-1 1-1c.54 0 1 .45 1 1zm4 0c0 .55-.46 1-1 1-.57 0-1-.45-1-1s.43-1 1-1c.54 0 1 .45 1 1zm3.98 0c0 .55-.45 1-1 1s-1-.45-1-1 .45-1 1-1 1 .45 1 1zm4 0c0 .55-.45 1-1 1s-1-.45-1-1 .45-1 1-1 1 .45 1 1zm4 0c0 .55-.45 1-1 1-.56 0-1-.45-1-1s.44-1 1-1c.55 0 1 .45 1 1zm4 0c0 .55-.46 1-1 1-.56 0-1-.45-1-1s.44-1 1-1c.54 0 1 .45 1 1zm3.98 0c0 .55-.44 1-1 1-.55 0-1-.45-1-1s.45-1 1-1c.56 0 1 .45 1 1zm4 0c0 .55-.45 1-1 1s-1-.45-1-1 .45-1 1-1 1 .45 1 1zm4 0c0 .55-.45 1-1 1-.56 0-1-.45-1-1s.44-1 1-1c.55 0 1 .45 1 1zm4 0c0 .55-.46 1-1 1-.56 0-1-.45-1-1s.44-1 1-1c.54 0 1 .45 1 1zm4 0c0 .55-.46 1-1 1-.57 0-1-.45-1-1s.43-1 1-1c.54 0 1 .45 1 1zm3.98 0c0 .55-.45 1-1 1s-1-.45-1-1 .45-1 1-1 1 .45 1 1zm4 0c0 .55-.45 1-1 1s-1-.45-1-1 .45-1 1-1 1 .45 1 1zm4 0c0 .55-.45 1-1 1-.56 0-1-.45-1-1s.44-1 1-1c.55 0 1 .45 1 1zm4 0c0 .55-.46 1-1 1-.56 0-1-.45-1-1s.44-1 1-1c.54 0 1 .45 1 1zm4 0c0 .55-.46 1-1 1-.57 0-1-.45-1-1s.43-1 1-1c.54 0 1 .45 1 1zm3.98 0c0 .55-.45 1-1 1s-1-.45-1-1 .45-1 1-1 1 .45 1 1zm4 0c0 .55-.45 1-1 1-.56 0-1-.45-1-1s.44-1 1-1c.55 0 1 .45 1 1zm4 0c0 .55-.46 1-1 1-.56 0-1-.45-1-1s.44-1 1-1c.54 0 1 .45 1 1zm4 0c0 .55-.46 1-1 1-.56 0-1-.45-1-1s.44-1 1-1c.54 0 1 .45 1 1zm3.98 0c0 .55-.44 1-1 1-.55 0-1-.45-1-1s.45-1 1-1c.56 0 1 .45 1 1zm4 0c0 .55-.45 1-1 1s-1-.45-1-1 .45-1 1-1 1 .45 1 1zm4 0c0 .55-.45 1-1 1-.56 0-1-.45-1-1s.44-1 1-1c.55 0 1 .45 1 1zm4 0c0 .55-.46 1-1 1-.56 0-1-.45-1-1s.44-1 1-1c.54 0 1 .45 1 1zm4 0c0 .55-.46 1-1 1-.57 0-1-.45-1-1s.43-1 1-1c.54 0 1 .45 1 1zm3.98 0c0 .55-.45 1-1 1s-1-.45-1-1 .45-1 1-1 1 .45 1 1zm4 0c0 .55-.45 1-1 1s-1-.45-1-1 .45-1 1-1 1 .45 1 1zm4 0c0 .55-.45 1-1 1-.56 0-1-.45-1-1s.44-1 1-1c.55 0 1 .45 1 1zm4 0c0 .55-.46 1-1 1-.56 0-1-.45-1-1s.44-1 1-1c.54 0 1 .45 1 1zm3.98 0c0 .55-.44 1-1 1-.55 0-1-.45-1-1s.45-1 1-1c.56 0 1 .45 1 1zm4 0c0 .55-.45 1-1 1s-1-.45-1-1 .45-1 1-1 1 .45 1 1zm4 0c0 .55-.45 1-1 1-.56 0-1-.45-1-1s.44-1 1-1c.55 0 1 .45 1 1zm4 0c0 .55-.46 1-1 1-.56 0-1-.45-1-1s.44-1 1-1c.54 0 1 .45 1 1zm4 0c0 .55-.46 1-1 1-.57 0-1-.45-1-1s.43-1 1-1c.54 0 1 .45 1 1zm3.98 0c0 .55-.45 1-1 1s-1-.45-1-1 .45-1 1-1 1 .45 1 1zm4 0c0 .55-.45 1-1 1s-1-.45-1-1 .45-1 1-1 1 .45 1 1zm4 0c0 .55-.45 1-1 1-.56 0-1-.45-1-1s.44-1 1-1c.55 0 1 .45 1 1zm4 0c0 .55-.46 1-1 1-.56 0-1-.45-1-1s.44-1 1-1c.54 0 1 .45 1 1zm4 0c0 .55-.46 1-1 1-.57 0-1-.45-1-1s.43-1 1-1c.54 0 1 .45 1 1zm3.98 0c0 .55-.45 1-1 1s-1-.45-1-1 .45-1 1-1 1 .45 1 1zm4 0c0 .55-.45 1-1 1-.56 0-1-.45-1-1s.44-1 1-1c.55 0 1 .45 1 1zm4 0c0 .55-.46 1-1 1-.56 0-1-.45-1-1s.44-1 1-1c.54 0 1 .45 1 1zm4 0c0 .55-.46 1-1 1-.56 0-1-.45-1-1s.44-1 1-1c.54 0 1 .45 1 1zm3.98 0c0 .55-.44 1-1 1-.55 0-1-.45-1-1s.45-1 1-1c.56 0 1 .45 1 1zm4 0c0 .55-.45 1-1 1s-1-.45-1-1 .45-1 1-1 1 .45 1 1zm4 0c0 .55-.45 1-1 1-.56 0-1-.45-1-1s.44-1 1-1c.55 0 1 .45 1 1zm4 0c0 .55-.46 1-1 1-.56 0-1-.45-1-1s.44-1 1-1c.54 0 1 .45 1 1zm4 0c0 .55-.46 1-1 1-.57 0-1-.45-1-1s.43-1 1-1c.54 0 1 .45 1 1zm3.98 0c0 .55-.45 1-1 1s-1-.45-1-1 .45-1 1-1 1 .45 1 1zm4 0c0 .55-.45 1-1 1s-1-.45-1-1 .45-1 1-1 1 .45 1 1zm4 0c0 .55-.45 1-1 1-.56 0-1-.45-1-1s.44-1 1-1c.55 0 1 .45 1 1zm4 0c0 .55-.46 1-1 1-.56 0-1-.45-1-1s.44-1 1-1c.54 0 1 .45 1 1zm3.98 0c0 .55-.44 1-1 1-.55 0-1-.45-1-1s.45-1 1-1c.56 0 1 .45 1 1zm4 0c0 .55-.45 1-1 1s-1-.45-1-1 .45-1 1-1 1 .45 1 1zm4 0c0 .55-.45 1-1 1-.56 0-1-.45-1-1s.44-1 1-1c.55 0 1 .45 1 1zm4 0c0 .55-.46 1-1 1-.56 0-1-.45-1-1s.44-1 1-1c.54 0 1 .45 1 1zm4 0c0 .55-.46 1-1 1-.57 0-1-.45-1-1s.43-1 1-1c.54 0 1 .45 1 1zm3.98 0c0 .55-.45 1-1 1s-1-.45-1-1 .45-1 1-1 1 .45 1 1zm4 0c0 .55-.45 1-1 1s-1-.45-1-1 .45-1 1-1 1 .45 1 1zm4 0c0 .55-.45 1-1 1-.56 0-1-.45-1-1s.44-1 1-1c.55 0 1 .45 1 1zm4 0c0 .55-.46 1-1 1-.56 0-1-.45-1-1s.44-1 1-1c.54 0 1 .45 1 1zm4 0c0 .55-.46 1-1 1-.57 0-1-.45-1-1s.43-1 1-1c.54 0 1 .45 1 1zm3.98 0c0 .55-.45 1-1 1s-1-.45-1-1 .45-1 1-1 1 .45 1 1zm4 0c0 .55-.45 1-1 1-.56 0-1-.45-1-1s.44-1 1-1c.55 0 1 .45 1 1zm4 0c0 .55-.46 1-1 1-.56 0-1-.45-1-1s.44-1 1-1c.54 0 1 .45 1 1zm4 0c0 .55-.46 1-1 1-.56 0-1-.45-1-1s.44-1 1-1c.54 0 1 .45 1 1zm3.98 0c0 .55-.44 1-1 1-.55 0-1-.45-1-1s.45-1 1-1c.56 0 1 .45 1 1zm4 0c0 .55-.45 1-1 1s-1-.45-1-1 .45-1 1-1 1 .45 1 1zm4 0c0 .55-.45 1-1 1-.56 0-1-.45-1-1s.44-1 1-1c.55 0 1 .45 1 1zm4 0c0 .55-.46 1-1 1-.56 0-1-.45-1-1s.44-1 1-1c.54 0 1 .45 1 1zm4 0c0 .55-.46 1-1 1-.57 0-1-.45-1-1s.43-1 1-1c.54 0 1 .45 1 1zm3.98 0c0 .55-.45 1-1 1s-1-.45-1-1 .45-1 1-1 1 .45 1 1zm4 0c0 .55-.45 1-1 1s-1-.45-1-1 .45-1 1-1 1 .45 1 1zm4 0c0 .55-.45 1-1 1-.56 0-1-.45-1-1s.44-1 1-1c.55 0 1 .45 1 1zm4 0c0 .55-.46 1-1 1-.56 0-1-.45-1-1s.44-1 1-1c.54 0 1 .45 1 1zm3.98 0c0 .55-.44 1-1 1-.55 0-1-.45-1-1s.45-1 1-1c.56 0 1 .45 1 1zm4 0c0 .55-.45 1-1 1s-1-.45-1-1 .45-1 1-1 1 .45 1 1zm4 0c0 .55-.45 1-1 1-.56 0-1-.45-1-1s.44-1 1-1c.55 0 1 .45 1 1zm4 0c0 .55-.46 1-1 1-.56 0-1-.45-1-1s.44-1 1-1c.54 0 1 .45 1 1zm4 0c0 .55-.46 1-1 1-.57 0-1-.45-1-1s.43-1 1-1c.54 0 1 .45 1 1zm3.98 0c0 .55-.45 1-1 1s-1-.45-1-1 .45-1 1-1 1 .45 1 1zm4 0c0 .55-.45 1-1 1s-1-.45-1-1 .45-1 1-1 1 .45 1 1zm4 0c0 .55-.45 1-1 1-.56 0-1-.45-1-1s.44-1 1-1c.55 0 1 .45 1 1zm4 0c0 .55-.46 1-1 1-.56 0-1-.45-1-1s.44-1 1-1c.54 0 1 .45 1 1zm4 0c0 .55-.46 1-1 1-.57 0-1-.45-1-1s.43-1 1-1c.54 0 1 .45 1 1zm3.98 0c0 .55-.45 1-1 1s-1-.45-1-1 .45-1 1-1 1 .45 1 1zm4 0c0 .55-.45 1-1 1-.56 0-1-.45-1-1s.44-1 1-1c.55 0 1 .45 1 1zm4 0c0 .55-.46 1-1 1-.56 0-1-.45-1-1s.44-1 1-1c.54 0 1 .45 1 1zm4 0c0 .55-.46 1-1 1-.56 0-1-.45-1-1s.44-1 1-1c.54 0 1 .45 1 1zm3.98 0c0 .55-.44 1-1 1-.55 0-1-.45-1-1s.45-1 1-1c.56 0 1 .45 1 1zm4 0c0 .55-.45 1-1 1s-1-.45-1-1 .45-1 1-1 1 .45 1 1zm4 0c0 .55-.45 1-1 1-.56 0-1-.45-1-1s.44-1 1-1c.55 0 1 .45 1 1zm4 0c0 .55-.46 1-1 1-.56 0-1-.45-1-1s.44-1 1-1c.54 0 1 .45 1 1zm4 0c0 .55-.46 1-1 1-.57 0-1-.45-1-1s.43-1 1-1c.54 0 1 .45 1 1zm3.98 0c0 .55-.45 1-1 1s-1-.45-1-1 .45-1 1-1 1 .45 1 1zm4 0c0 .55-.45 1-1 1s-1-.45-1-1 .45-1 1-1 1 .45 1 1zm4 0c0 .55-.45 1-1 1-.56 0-1-.45-1-1s.44-1 1-1c.55 0 1 .45 1 1zm4 0c0 .55-.46 1-1 1-.56 0-1-.45-1-1s.44-1 1-1c.54 0 1 .45 1 1zm3.98 0c0 .55-.44 1-1 1-.55 0-1-.45-1-1s.45-1 1-1c.56 0 1 .45 1 1zm4 0c0 .55-.45 1-1 1s-1-.45-1-1 .45-1 1-1 1 .45 1 1zm4 0c0 .55-.45 1-1 1-.56 0-1-.45-1-1s.44-1 1-1c.55 0 1 .45 1 1zm4 0c0 .55-.46 1-1 1-.56 0-1-.45-1-1s.44-1 1-1c.54 0 1 .45 1 1zm4 0c0 .55-.46 1-1 1-.57 0-1-.45-1-1s.43-1 1-1c.54 0 1 .45 1 1zm3.98 0c0 .55-.45 1-1 1s-1-.45-1-1 .45-1 1-1 1 .45 1 1zm4 0c0 .55-.45 1-1 1s-1-.45-1-1 .45-1 1-1 1 .45 1 1zm4 0c0 .55-.45 1-1 1-.56 0-1-.45-1-1s.44-1 1-1c.55 0 1 .45 1 1zm4 0c0 .55-.46 1-1 1-.56 0-1-.45-1-1s.44-1 1-1c.54 0 1 .45 1 1zm4 0c0 .55-.46 1-1 1-.57 0-1-.45-1-1s.43-1 1-1c.54 0 1 .45 1 1zm3.98 0c0 .55-.45 1-1 1s-1-.45-1-1 .45-1 1-1 1 .45 1 1zm4 0c0 .55-.45 1-1 1-.56 0-1-.45-1-1s.44-1 1-1c.55 0 1 .45 1 1zm4 0c0 .55-.46 1-1 1-.56 0-1-.45-1-1s.44-1 1-1c.54 0 1 .45 1 1zm4 0c0 .55-.46 1-1 1-.56 0-1-.45-1-1s.44-1 1-1c.54 0 1 .45 1 1zm3.98 0c0 .55-.44 1-1 1-.55 0-1-.45-1-1s.45-1 1-1c.56 0 1 .45 1 1zm4 0c0 .55-.45 1-1 1s-1-.45-1-1 .45-1 1-1 1 .45 1 1zm4 0c0 .55-.45 1-1 1-.56 0-1-.45-1-1s.44-1 1-1c.55 0 1 .45 1 1zm4 0c0 .55-.46 1-1 1-.56 0-1-.45-1-1s.44-1 1-1c.54 0 1 .45 1 1zm4 0c0 .55-.46 1-1 1-.57 0-1-.45-1-1s.43-1 1-1c.54 0 1 .45 1 1zm3.98 0c0 .55-.45 1-1 1s-1-.45-1-1 .45-1 1-1 1 .45 1 1zm4 0c0 .55-.45 1-1 1s-1-.45-1-1 .45-1 1-1 1 .45 1 1zm4 0c0 .55-.45 1-1 1-.56 0-1-.45-1-1s.44-1 1-1c.55 0 1 .45 1 1zm4 0c0 .55-.46 1-1 1-.56 0-1-.45-1-1s.44-1 1-1c.54 0 1 .45 1 1zm3.98 0c0 .55-.44 1-1 1-.55 0-1-.45-1-1s.45-1 1-1c.56 0 1 .45 1 1zm4 0c0 .55-.45 1-1 1s-1-.45-1-1 .45-1 1-1 1 .45 1 1zm4 0c0 .55-.45 1-1 1-.56 0-1-.45-1-1s.44-1 1-1c.55 0 1 .45 1 1zm4 0c0 .55-.46 1-1 1-.56 0-1-.45-1-1s.44-1 1-1c.54 0 1 .45 1 1zm4 0c0 .55-.46 1-1 1-.57 0-1-.45-1-1s.43-1 1-1c.54 0 1 .45 1 1zm3.98 0c0 .55-.45 1-1 1s-1-.45-1-1 .45-1 1-1 1 .45 1 1zm4 0c0 .55-.45 1-1 1s-1-.45-1-1 .45-1 1-1 1 .45 1 1zm4 0c0 .55-.45 1-1 1-.56 0-1-.45-1-1s.44-1 1-1c.55 0 1 .45 1 1zm4 0c0 .55-.46 1-1 1-.56 0-1-.45-1-1s.44-1 1-1c.54 0 1 .45 1 1zm4 0c0 .55-.46 1-1 1-.57 0-1-.45-1-1s.43-1 1-1c.54 0 1 .45 1 1zm3.98 0c0 .55-.45 1-1 1s-1-.45-1-1 .45-1 1-1 1 .45 1 1zm4 0c0 .55-.45 1-1 1-.56 0-1-.45-1-1s.44-1 1-1c.55 0 1 .45 1 1zm4 0c0 .55-.46 1-1 1-.56 0-1-.45-1-1s.44-1 1-1c.54 0 1 .45 1 1zm4 0c0 .55-.46 1-1 1-.56 0-1-.45-1-1s.44-1 1-1c.54 0 1 .45 1 1zm3.98 0c0 .55-.44 1-1 1-.55 0-1-.45-1-1s.45-1 1-1c.56 0 1 .45 1 1zm4 0c0 .55-.45 1-1 1s-1-.45-1-1 .45-1 1-1 1 .45 1 1zm4 0c0 .55-.45 1-1 1-.56 0-1-.45-1-1s.44-1 1-1c.55 0 1 .45 1 1zm4 0c0 .55-.46 1-1 1-.56 0-1-.45-1-1s.44-1 1-1c.54 0 1 .45 1 1zm4 0c0 .55-.46 1-1 1-.57 0-1-.45-1-1s.43-1 1-1c.54 0 1 .45 1 1zm3.98 0c0 .55-.45 1-1 1s-1-.45-1-1 .45-1 1-1 1 .45 1 1zm4 0c0 .55-.45 1-1 1s-1-.45-1-1 .45-1 1-1 1 .45 1 1zm4 0c0 .55-.45 1-1 1-.56 0-1-.45-1-1s.44-1 1-1c.55 0 1 .45 1 1zm4 0c0 .55-.46 1-1 1-.56 0-1-.45-1-1s.44-1 1-1c.54 0 1 .45 1 1zm3.98 0c0 .55-.44 1-1 1-.55 0-1-.45-1-1s.45-1 1-1c.56 0 1 .45 1 1zm4 0c0 .55-.45 1-1 1s-1-.45-1-1 .45-1 1-1 1 .45 1 1zm4 0c0 .55-.45 1-1 1-.56 0-1-.45-1-1s.44-1 1-1c.55 0 1 .45 1 1zm4 0c0 .55-.46 1-1 1-.56 0-1-.45-1-1s.44-1 1-1c.54 0 1 .45 1 1zm4 0c0 .55-.46 1-1 1-.57 0-1-.45-1-1s.43-1 1-1c.54 0 1 .45 1 1zm3.98 0c0 .55-.45 1-1 1s-1-.45-1-1 .45-1 1-1 1 .45 1 1zm4 0c0 .55-.45 1-1 1s-1-.45-1-1 .45-1 1-1 1 .45 1 1zm4 0c0 .55-.45 1-1 1-.56 0-1-.45-1-1s.44-1 1-1c.55 0 1 .45 1 1zm4 0c0 .55-.46 1-1 1-.56 0-1-.45-1-1s.44-1 1-1c.54 0 1 .45 1 1zm4 0c0 .55-.46 1-1 1-.57 0-1-.45-1-1s.43-1 1-1c.54 0 1 .45 1 1zm3.98 0c0 .55-.45 1-1 1s-1-.45-1-1 .45-1 1-1 1 .45 1 1zm4 0c0 .55-.45 1-1 1-.56 0-1-.45-1-1s.44-1 1-1c.55 0 1 .45 1 1zm4 0c0 .55-.46 1-1 1-.56 0-1-.45-1-1s.44-1 1-1c.54 0 1 .45 1 1zm4 0c0 .55-.46 1-1 1-.56 0-1-.45-1-1s.44-1 1-1c.54 0 1 .45 1 1zm3.98 0c0 .55-.44 1-1 1-.55 0-1-.45-1-1s.45-1 1-1c.56 0 1 .45 1 1zm4 0c0 .55-.45 1-1 1s-1-.45-1-1 .45-1 1-1 1 .45 1 1zm4 0c0 .55-.45 1-1 1-.56 0-1-.45-1-1s.44-1 1-1c.55 0 1 .45 1 1zm4 0c0 .55-.46 1-1 1-.56 0-1-.45-1-1s.44-1 1-1c.54 0 1 .45 1 1zm4 0c0 .55-.46 1-1 1-.57 0-1-.45-1-1s.43-1 1-1c.54 0 1 .45 1 1zm3.98 0c0 .55-.45 1-1 1s-1-.45-1-1 .45-1 1-1 1 .45 1 1zm4 0c0 .55-.45 1-1 1s-1-.45-1-1 .45-1 1-1 1 .45 1 1zm4 0c0 .55-.45 1-1 1-.56 0-1-.45-1-1s.44-1 1-1c.55 0 1 .45 1 1zm4 0c0 .55-.46 1-1 1-.56 0-1-.45-1-1s.44-1 1-1c.54 0 1 .45 1 1zm3.98 0c0 .55-.44 1-1 1-.55 0-1-.45-1-1s.45-1 1-1c.56 0 1 .45 1 1zm4 0c0 .55-.45 1-1 1s-1-.45-1-1 .45-1 1-1 1 .45 1 1zm4 0c0 .55-.45 1-1 1-.56 0-1-.45-1-1s.44-1 1-1c.55 0 1 .45 1 1zm4 0c0 .55-.46 1-1 1-.56 0-1-.45-1-1s.44-1 1-1c.54 0 1 .45 1 1zm4 0c0 .55-.46 1-1 1-.57 0-1-.45-1-1s.43-1 1-1c.54 0 1 .45 1 1zm3.98 0c0 .55-.45 1-1 1s-1-.45-1-1 .45-1 1-1 1 .45 1 1zm4 0c0 .55-.45 1-1 1s-1-.45-1-1 .45-1 1-1 1 .45 1 1zm4 0c0 .55-.45 1-1 1-.56 0-1-.45-1-1s.44-1 1-1c.55 0 1 .45 1 1zm4 0c0 .55-.46 1-1 1-.56 0-1-.45-1-1s.44-1 1-1c.54 0 1 .45 1 1zm4 0c0 .55-.46 1-1 1-.57 0-1-.45-1-1s.43-1 1-1c.54 0 1 .45 1 1zm3.98 0c0 .55-.45 1-1 1s-1-.45-1-1 .45-1 1-1 1 .45 1 1zm4 0c0 .55-.45 1-1 1-.56 0-1-.45-1-1s.44-1 1-1c.55 0 1 .45 1 1zm4 0c0 .55-.46 1-1 1-.56 0-1-.45-1-1s.44-1 1-1c.54 0 1 .45 1 1zm4 0c0 .55-.46 1-1 1-.56 0-1-.45-1-1s.44-1 1-1c.54 0 1 .45 1 1zm3.98 0c0 .55-.44 1-1 1-.55 0-1-.45-1-1s.45-1 1-1c.56 0 1 .45 1 1zm4 0c0 .55-.45 1-1 1s-1-.45-1-1 .45-1 1-1 1 .45 1 1zm4 0c0 .55-.45 1-1 1-.56 0-1-.45-1-1s.44-1 1-1c.55 0 1 .45 1 1zm4 0c0 .55-.46 1-1 1-.56 0-1-.45-1-1s.44-1 1-1c.54 0 1 .45 1 1zm4 0c0 .55-.46 1-1 1-.57 0-1-.45-1-1s.43-1 1-1c.54 0 1 .45 1 1zm3.98 0c0 .55-.45 1-1 1s-1-.45-1-1 .45-1 1-1 1 .45 1 1zm4 0c0 .55-.45 1-1 1s-1-.45-1-1 .45-1 1-1 1 .45 1 1zm4 0c0 .55-.45 1-1 1-.56 0-1-.45-1-1s.44-1 1-1c.55 0 1 .45 1 1zm4 0c0 .55-.46 1-1 1-.56 0-1-.45-1-1s.44-1 1-1c.54 0 1 .45 1 1zm3.98 0c0 .55-.44 1-1 1-.55 0-1-.45-1-1s.45-1 1-1c.56 0 1 .45 1 1zm4 0c0 .55-.45 1-1 1s-1-.45-1-1 .45-1 1-1 1 .45 1 1zm4 0c0 .55-.45 1-1 1-.56 0-1-.45-1-1s.44-1 1-1c.55 0 1 .45 1 1zm4 0c0 .55-.46 1-1 1-.56 0-1-.45-1-1s.44-1 1-1c.54 0 1 .45 1 1zm4 0c0 .55-.46 1-1 1-.57 0-1-.45-1-1s.43-1 1-1c.54 0 1 .45 1 1zm3.98 0c0 .55-.45 1-1 1s-1-.45-1-1 .45-1 1-1 1 .45 1 1zm4 0c0 .55-.45 1-1 1s-1-.45-1-1 .45-1 1-1 1 .45 1 1zm4 0c0 .55-.45 1-1 1-.56 0-1-.45-1-1s.44-1 1-1c.55 0 1 .45 1 1zm4 0c0 .55-.46 1-1 1-.56 0-1-.45-1-1s.44-1 1-1c.54 0 1 .45 1 1zm4 0c0 .55-.46 1-1 1-.57 0-1-.45-1-1s.43-1 1-1c.54 0 1 .45 1 1zm3.98 0c0 .55-.45 1-1 1s-1-.45-1-1 .45-1 1-1 1 .45 1 1zm4 0c0 .55-.45 1-1 1-.56 0-1-.45-1-1s.44-1 1-1c.55 0 1 .45 1 1zm4 0c0 .55-.46 1-1 1-.56 0-1-.45-1-1s.44-1 1-1c.54 0 1 .45 1 1zm4 0c0 .55-.46 1-1 1-.56 0-1-.45-1-1s.44-1 1-1c.54 0 1 .45 1 1zm3.98 0c0 .55-.44 1-1 1-.55 0-1-.45-1-1s.45-1 1-1c.56 0 1 .45 1 1zm4 0c0 .55-.45 1-1 1s-1-.45-1-1 .45-1 1-1 1 .45 1 1zm4 0c0 .55-.45 1-1 1-.56 0-1-.45-1-1s.44-1 1-1c.55 0 1 .45 1 1zm4 0c0 .55-.46 1-1 1-.56 0-1-.45-1-1s.44-1 1-1c.54 0 1 .45 1 1zm4 0c0 .55-.46 1-1 1-.57 0-1-.45-1-1s.43-1 1-1c.54 0 1 .45 1 1zm3.98 0c0 .55-.45 1-1 1s-1-.45-1-1 .45-1 1-1 1 .45 1 1zm4 0c0 .55-.45 1-1 1s-1-.45-1-1 .45-1 1-1 1 .45 1 1zm4 0c0 .55-.45 1-1 1-.56 0-1-.45-1-1s.44-1 1-1c.55 0 1 .45 1 1zm4 0c0 .55-.46 1-1 1-.56 0-1-.45-1-1s.44-1 1-1c.54 0 1 .45 1 1zm3.98 0c0 .55-.44 1-1 1-.55 0-1-.45-1-1s.45-1 1-1c.56 0 1 .45 1 1zm4 0c0 .55-.45 1-1 1s-1-.45-1-1 .45-1 1-1 1 .45 1 1z" fill="#303030"/><path d="M21.03 1000H20M1858.97 1000h1.03M1579 608V222c0-1.66-1.34-3-3-3H724.87" stroke="#303030" stroke-width="2" fill="none"/><path d="M1580 609h-2v-1.03h2z" fill="#303030"/><path d="M702.35 219l21.52-12.73v25.46z" stroke="#303030" stroke-width="2" fill="#fff"/><path d="M405.2 23c0-1.66 1.34-3 3-3h354c1.66 0 3 1.34 3 3v91c0 1.66-1.34 3-3 3h-354c-1.66 0-3-1.34-3-3z" stroke="#b2b2b2" stroke-width="4" fill="#e5e5e5"/><path d="M405.2 79.2h360" stroke="#b2b2b2" stroke-width="4" fill="none"/><g><use xlink:href="#a" transform="matrix(1,0,0,1,413.19999999999993,28) translate(113.57499999999999 14.799999999999999)"/><use xlink:href="#N" transform="matrix(1,0,0,1,413.19999999999993,28) translate(75.70000000000002 36.4)"/></g><g><use xlink:href="#t" transform="matrix(1,0,0,1,417.19999999999993,87.2) translate(0 14.6)"/><use xlink:href="#w" transform="matrix(1,0,0,1,417.19999999999993,87.2) translate(15.5 14.6)"/><use xlink:href="#x" transform="matrix(1,0,0,1,417.19999999999993,87.2) translate(167.3 14.6)"/></g><defs><path d="M15-91v-56l181-69v40L49-119l147 57v40" id="O"/><path d="M25-224v-37h50v37H25zM25 0v-190h50V0H25" id="P"/><path d="M135-194c87-1 58 113 63 194h-50c-7-57 23-157-34-157-59 0-34 97-39 157H25l-1-190h47c2 12-1 28 3 38 12-26 28-41 61-42" id="Q"/><path d="M115-3C79 11 28 4 28-45v-112H4v-33h27l15-45h31v45h36v33H77v99c-1 23 16 31 38 25v30" id="R"/><path d="M185-48c-13 30-37 53-82 52C43 2 14-33 14-96s30-98 90-98c62 0 83 45 84 108H66c0 31 8 55 39 56 18 0 30-7 34-22zm-45-69c5-46-57-63-70-21-2 6-4 13-4 21h74" id="S"/><path d="M135-150c-39-12-60 13-60 57V0H25l-1-190h47c2 13-1 29 3 40 6-28 27-53 61-41v41" id="T"/><path d="M121-226c-27-7-43 5-38 36h38v33H83V0H34v-157H6v-33h28c-9-59 32-81 87-68v32" id="U"/><path d="M133-34C117-15 103 5 69 4 32 3 11-16 11-54c-1-60 55-63 116-61 1-26-3-47-28-47-18 1-26 9-28 27l-52-2c7-38 36-58 82-57s74 22 75 68l1 82c-1 14 12 18 25 15v27c-30 8-71 5-69-32zm-48 3c29 0 43-24 42-57-32 0-66-3-65 30 0 17 8 27 23 27" id="V"/><path d="M190-63c-7 42-38 67-86 67-59 0-84-38-90-98-12-110 154-137 174-36l-49 2c-2-19-15-32-35-32-30 0-35 28-38 64-6 74 65 87 74 30" id="W"/><path d="M15-22v-40l146-57-146-57v-40l181 69v56" id="X"/><g id="a"><use transform="matrix(0.05,0,0,0.05,0,0)" xlink:href="#O"/><use transform="matrix(0.05,0,0,0.05,10.5,0)" xlink:href="#O"/><use transform="matrix(0.05,0,0,0.05,21,0)" xlink:href="#P"/><use transform="matrix(0.05,0,0,0.05,26,0)" xlink:href="#Q"/><use transform="matrix(0.05,0,0,0.05,36.95,0)" xlink:href="#R"/><use transform="matrix(0.05,0,0,0.05,42.900000000000006,0)" xlink:href="#S"/><use transform="matrix(0.05,0,0,0.05,52.900000000000006,0)" xlink:href="#T"/><use transform="matrix(0.05,0,0,0.05,59.900000000000006,0)" xlink:href="#U"/><use transform="matrix(0.05,0,0,0.05,65.85000000000001,0)" xlink:href="#V"/><use transform="matrix(0.05,0,0,0.05,75.85000000000001,0)" xlink:href="#W"/><use transform="matrix(0.05,0,0,0.05,85.85000000000001,0)" xlink:href="#S"/><use transform="matrix(0.05,0,0,0.05,95.85000000000001,0)" xlink:href="#X"/><use transform="matrix(0.05,0,0,0.05,106.35000000000001,0)" xlink:href="#X"/></g><path d="M24 0v-248h52V0H24" id="Y"/><path d="M199 0l-22-63H83L61 0H9l90-248h61L250 0h-51zm-33-102l-36-108c-10 38-24 72-36 108h72" id="Z"/><path d="M195-6C206 82 75 100 31 46c-4-6-6-13-8-21l49-6c3 16 16 24 34 25 40 0 42-37 40-79-11 22-30 35-61 35-53 0-70-43-70-97 0-56 18-96 73-97 30 0 46 14 59 34l2-30h47zm-90-29c32 0 41-27 41-63 0-35-9-62-40-62-32 0-39 29-40 63 0 36 9 62 39 62" id="aa"/><path d="M240-174c0 40-23 61-54 70L253 0h-59l-57-94H76V0H24v-248c93 4 217-23 216 74zM76-134c48-2 112 12 112-38 0-48-66-32-112-35v73" id="ab"/><path d="M110-194c64 0 96 36 96 99 0 64-35 99-97 99-61 0-95-36-95-99 0-62 34-99 96-99zm-1 164c35 0 45-28 45-65 0-40-10-65-43-65-34 0-45 26-45 65 0 36 10 65 43 65" id="ac"/><g id="b"><use transform="matrix(0.05,0,0,0.05,0,0)" xlink:href="#Y"/><use transform="matrix(0.05,0,0,0.05,5,0)" xlink:href="#Z"/><use transform="matrix(0.05,0,0,0.05,17.950000000000003,0)" xlink:href="#aa"/><use transform="matrix(0.05,0,0,0.05,28.900000000000006,0)" xlink:href="#aa"/><use transform="matrix(0.05,0,0,0.05,39.85000000000001,0)" xlink:href="#T"/><use transform="matrix(0.05,0,0,0.05,46.85000000000001,0)" xlink:href="#S"/><use transform="matrix(0.05,0,0,0.05,56.85,0)" xlink:href="#aa"/><use transform="matrix(0.05,0,0,0.05,67.80000000000001,0)" xlink:href="#V"/><use transform="matrix(0.05,0,0,0.05,77.80000000000001,0)" xlink:href="#R"/><use transform="matrix(0.05,0,0,0.05,83.75000000000001,0)" xlink:href="#S"/><use transform="matrix(0.05,0,0,0.05,93.75000000000001,0)" xlink:href="#ab"/><use transform="matrix(0.05,0,0,0.05,106.7,0)" xlink:href="#ac"/><use transform="matrix(0.05,0,0,0.05,117.65000000000003,0)" xlink:href="#ac"/><use transform="matrix(0.05,0,0,0.05,128.60000000000002,0)" xlink:href="#R"/></g><path fill="#303030" d="M115-194c55 1 70 41 70 98S169 2 115 4C84 4 66-9 55-30l1 105H24l-1-265h31l2 30c10-21 28-34 59-34zm-8 174c40 0 45-34 45-75s-6-73-45-74c-42 0-51 32-51 76 0 43 10 73 51 73" id="ad"/><path fill="#303030" d="M114-163C36-179 61-72 57 0H25l-1-190h30c1 12-1 29 2 39 6-27 23-49 58-41v29" id="ae"/><path fill="#303030" d="M100-194c62-1 85 37 85 99 1 63-27 99-86 99S16-35 15-95c0-66 28-99 85-99zM99-20c44 1 53-31 53-75 0-43-8-75-51-75s-53 32-53 75 10 74 51 75" id="af"/><path fill="#303030" d="M108 0H70L1-190h34L89-25l56-165h34" id="ag"/><path fill="#303030" d="M24-231v-30h32v30H24zM24 0v-190h32V0H24" id="ah"/><path fill="#303030" d="M85-194c31 0 48 13 60 33l-1-100h32l1 261h-30c-2-10 0-23-3-31C134-8 116 4 85 4 32 4 16-35 15-94c0-66 23-100 70-100zm9 24c-40 0-46 34-46 75 0 40 6 74 45 74 42 0 51-32 51-76 0-42-9-74-50-73" id="ai"/><path fill="#303030" d="M100-194c63 0 86 42 84 106H49c0 40 14 67 53 68 26 1 43-12 49-29l28 8c-11 28-37 45-77 45C44 4 14-33 15-96c1-61 26-98 85-98zm52 81c6-60-76-77-97-28-3 7-6 17-6 28h103" id="aj"/><path fill="#303030" d="M135-143c-3-34-86-38-87 0 15 53 115 12 119 90S17 21 10-45l28-5c4 36 97 45 98 0-10-56-113-15-118-90-4-57 82-63 122-42 12 7 21 19 24 35" id="ak"/><g id="c"><use transform="matrix(0.05,0,0,0.05,0,0)" xlink:href="#ad"/><use transform="matrix(0.05,0,0,0.05,10,0)" xlink:href="#ae"/><use transform="matrix(0.05,0,0,0.05,15.949999999999998,0)" xlink:href="#af"/><use transform="matrix(0.05,0,0,0.05,25.950000000000003,0)" xlink:href="#ag"/><use transform="matrix(0.05,0,0,0.05,34.95,0)" xlink:href="#ah"/><use transform="matrix(0.05,0,0,0.05,38.900000000000006,0)" xlink:href="#ai"/><use transform="matrix(0.05,0,0,0.05,48.900000000000006,0)" xlink:href="#aj"/><use transform="matrix(0.05,0,0,0.05,58.900000000000006,0)" xlink:href="#ak"/></g><path fill="#303030" d="M141-36C126-15 110 5 73 4 37 3 15-17 15-53c-1-64 63-63 125-63 3-35-9-54-41-54-24 1-41 7-42 31l-33-3c5-37 33-52 76-52 45 0 72 20 72 64v82c-1 20 7 32 28 27v20c-31 9-61-2-59-35zM48-53c0 20 12 33 32 33 41-3 63-29 60-74-43 2-92-5-92 41" id="al"/><path fill="#303030" d="M96-169c-40 0-48 33-48 73s9 75 48 75c24 0 41-14 43-38l32 2c-6 37-31 61-74 61-59 0-76-41-82-99-10-93 101-131 147-64 4 7 5 14 7 22l-32 3c-4-21-16-35-41-35" id="am"/><g id="d"><use transform="matrix(0.05,0,0,0.05,0,0)" xlink:href="#al"/><use transform="matrix(0.05,0,0,0.05,10,0)" xlink:href="#am"/><use transform="matrix(0.05,0,0,0.05,19,0)" xlink:href="#am"/><use transform="matrix(0.05,0,0,0.05,28,0)" xlink:href="#aj"/><use transform="matrix(0.05,0,0,0.05,38,0)" xlink:href="#ak"/><use transform="matrix(0.05,0,0,0.05,47,0)" xlink:href="#ak"/></g><path fill="#303030" d="M59-47c-2 24 18 29 38 22v24C64 9 27 4 27-40v-127H5v-23h24l9-43h21v43h35v23H59v120" id="an"/><g id="e"><use transform="matrix(0.05,0,0,0.05,0,0)" xlink:href="#an"/><use transform="matrix(0.05,0,0,0.05,5,0)" xlink:href="#af"/></g><path fill="#303030" d="M14 0l48-248h34L48 0H14" id="ao"/><path fill="#303030" d="M187 0l-14-72H61L19 0h-37l149-248h38L221 0h-34zm-19-99l-22-123L76-99h92" id="ap"/><path fill="#303030" d="M67-162c32-53 139-36 121 50C175-51 163 2 97 4 68 4 52-11 42-31 38 6 28 39 22 75H-9l50-265h29c-1 10 0 20-3 28zm89 36c0-26-10-43-35-43-54 0-67 50-69 103-1 29 14 45 42 46 53 0 62-58 62-106" id="aq"/><path fill="#303030" d="M6 0l50-261h32L37 0H6" id="ar"/><path fill="#303030" d="M50-231l6-30h32l-6 30H50zM6 0l37-190h31L37 0H6" id="as"/><path fill="#303030" d="M165-48c-4 18 1 34 23 27l-3 20c-29 8-62 0-52-35h-2C116-14 99 4 63 4 30 4 8-16 8-49c0-68 71-67 138-67 10-26 0-56-31-54-26 1-42 9-47 31l-32-5c8-67 160-71 144 15-5 28-9 54-15 81zM42-50c3 52 80 24 89-6 7-12 7-24 11-38-47 1-103-4-100 44" id="at"/><path fill="#303030" d="M67-158c22-48 132-52 116 29L158 0h-32l25-140c3-38-53-32-70-12C52-117 51-52 38 0H6l36-190h30" id="au"/><path fill="#303030" d="M44-68c0 29 11 47 38 47 30 0 42-19 51-41l28 9C148-21 126 4 82 4 31 4 10-29 12-85c3-77 74-140 146-93 12 8 15 23 18 40l-31 5c-1-22-13-36-36-36-52 0-65 49-65 101" id="av"/><path fill="#303030" d="M111-194c62-3 86 47 72 106H45c-7 38 6 69 45 68 27-1 43-14 53-32l24 11C152-15 129 4 87 4 38 3 12-23 12-71c0-70 32-119 99-123zm44 81c14-66-71-72-95-28-4 8-8 17-11 28h106" id="aw"/><path fill="#303030" d="M62-99C39-31 123 0 170-40s38-139 58-208h34C234-144 253 4 115 4 49 4 18-43 31-112l26-136h34" id="ax"/><path fill="#303030" d="M55-144c13 50 104 24 104 88C159 21 15 23 1-39l26-10c6 40 102 42 102-4-13-50-104-23-104-87 0-71 143-71 148-8l-29 4c-5-35-85-37-89 0" id="ay"/><path fill="#303030" d="M103-194c29 0 47 14 56 36 2-11 5-23 8-32h30L160-5C157 61 82 97 21 62 9 55 4 45 1 30l28-7c7 42 83 31 92-3 4-16 9-38 13-55-13 20-29 36-62 36-40 0-60-25-60-64 0-71 23-131 91-131zm4 24c-53 0-58 54-61 104-2 27 10 44 36 44 49 0 65-50 67-102 1-29-15-46-42-46" id="az"/><path fill="#303030" d="M194-120c59 52 2 134-86 124-53-6-90-18-98-63l31-7c8 30 29 43 70 43 46 0 84-17 71-62-32-43-135-20-137-98-3-89 178-90 191-16l-30 9c-8-48-127-53-127 5 0 53 81 35 115 65" id="aA"/><path fill="#303030" d="M67-158c15-20 31-36 64-36 94 0 33 127 27 194h-32l25-140c3-38-53-32-70-12C52-117 51-51 37 0H6l51-261h31" id="aB"/><path fill="#303030" d="M133-28C103 26-5 8 13-77c13-62 24-115 90-117 29-1 46 15 56 35l19-102h32L160 0h-30zM45-64c-2 27 10 43 35 43 54-1 69-50 69-103 0-29-15-46-42-46-53-1-58 58-62 106" id="aC"/><path fill="#303030" d="M67 3c-93-2-31-127-26-193h32L48-50c-3 39 53 32 70 12 30-34 30-101 43-152h32L157 0h-30c1-10 6-24 4-33-14 20-29 37-64 36" id="aD"/><g id="f"><use transform="matrix(0.05,0,0,0.05,0,0)" xlink:href="#ao"/><use transform="matrix(0.05,0,0,0.05,5,0)" xlink:href="#ap"/><use transform="matrix(0.05,0,0,0.05,17,0)" xlink:href="#aq"/><use transform="matrix(0.05,0,0,0.05,27,0)" xlink:href="#aq"/><use transform="matrix(0.05,0,0,0.05,37,0)" xlink:href="#ar"/><use transform="matrix(0.05,0,0,0.05,40.95,0)" xlink:href="#as"/><use transform="matrix(0.05,0,0,0.05,44.900000000000006,0)" xlink:href="#at"/><use transform="matrix(0.05,0,0,0.05,54.900000000000006,0)" xlink:href="#au"/><use transform="matrix(0.05,0,0,0.05,64.9,0)" xlink:href="#av"/><use transform="matrix(0.05,0,0,0.05,73.9,0)" xlink:href="#aw"/><use transform="matrix(0.05,0,0,0.05,83.9,0)" xlink:href="#ax"/><use transform="matrix(0.05,0,0,0.05,96.85000000000001,0)" xlink:href="#ay"/><use transform="matrix(0.05,0,0,0.05,105.85000000000001,0)" xlink:href="#at"/><use transform="matrix(0.05,0,0,0.05,115.85000000000001,0)" xlink:href="#az"/><use transform="matrix(0.05,0,0,0.05,125.85000000000001,0)" xlink:href="#aw"/><use transform="matrix(0.05,0,0,0.05,135.85000000000002,0)" xlink:href="#aA"/><use transform="matrix(0.05,0,0,0.05,147.85000000000002,0)" xlink:href="#av"/><use transform="matrix(0.05,0,0,0.05,156.85000000000002,0)" xlink:href="#aB"/><use transform="matrix(0.05,0,0,0.05,166.85000000000002,0)" xlink:href="#aw"/><use transform="matrix(0.05,0,0,0.05,176.85000000000002,0)" xlink:href="#aC"/><use transform="matrix(0.05,0,0,0.05,186.85000000000002,0)" xlink:href="#aD"/><use transform="matrix(0.05,0,0,0.05,196.85000000000002,0)" xlink:href="#ar"/><use transform="matrix(0.05,0,0,0.05,200.8,0)" xlink:href="#aw"/></g><path fill="#303030" d="M219-77C219 17 104-2 11 0l48-248c73 2 169-15 169 57 0 38-24 54-60 60 29 5 51 21 51 54zm-26-111c0-44-62-31-105-33l-16 79c55 0 121 9 121-46zm-7 110c-1-49-69-36-119-38L50-27c61-1 137 12 136-51" id="aE"/><path fill="#303030" d="M11 0l48-248h184l-5 28H87l-15 79h140l-5 27H67L50-27h158l-5 27H11" id="aF"/><path fill="#303030" d="M51-54c-9 22 5 41 31 30L79-1C43 14 10-4 19-52l22-115H19l5-23h22l19-43h21l-9 43h35l-4 23H73" id="aG"/><path fill="#303030" d="M198-190L69 30C53 58 25 83-20 72c4-11-1-27 19-22 33-1 43-29 59-52L20-190h32L79-34l84-156h35" id="aH"/><g id="g"><use transform="matrix(0.05,0,0,0.05,0,0)" xlink:href="#aE"/><use transform="matrix(0.05,0,0,0.05,12,0)" xlink:href="#at"/><use transform="matrix(0.05,0,0,0.05,22,0)" xlink:href="#ay"/><use transform="matrix(0.05,0,0,0.05,31,0)" xlink:href="#aw"/><use transform="matrix(0.05,0,0,0.05,41,0)" xlink:href="#aF"/><use transform="matrix(0.05,0,0,0.05,53,0)" xlink:href="#au"/><use transform="matrix(0.05,0,0,0.05,63,0)" xlink:href="#aG"/><use transform="matrix(0.05,0,0,0.05,68,0)" xlink:href="#as"/><use transform="matrix(0.05,0,0,0.05,71.95,0)" xlink:href="#aG"/><use transform="matrix(0.05,0,0,0.05,76.95,0)" xlink:href="#aH"/></g><g id="h"><use transform="matrix(0.05,0,0,0.05,0,0)" xlink:href="#ao"/><use transform="matrix(0.05,0,0,0.05,5,0)" xlink:href="#ap"/><use transform="matrix(0.05,0,0,0.05,17,0)" xlink:href="#aq"/><use transform="matrix(0.05,0,0,0.05,27,0)" xlink:href="#aq"/><use transform="matrix(0.05,0,0,0.05,37,0)" xlink:href="#ar"/><use transform="matrix(0.05,0,0,0.05,40.95,0)" xlink:href="#as"/><use transform="matrix(0.05,0,0,0.05,44.900000000000006,0)" xlink:href="#at"/><use transform="matrix(0.05,0,0,0.05,54.900000000000006,0)" xlink:href="#au"/><use transform="matrix(0.05,0,0,0.05,64.9,0)" xlink:href="#av"/><use transform="matrix(0.05,0,0,0.05,73.9,0)" xlink:href="#aw"/><use transform="matrix(0.05,0,0,0.05,83.9,0)" xlink:href="#ax"/><use transform="matrix(0.05,0,0,0.05,96.85000000000001,0)" xlink:href="#ay"/><use transform="matrix(0.05,0,0,0.05,105.85000000000001,0)" xlink:href="#at"/><use transform="matrix(0.05,0,0,0.05,115.85000000000001,0)" xlink:href="#az"/><use transform="matrix(0.05,0,0,0.05,125.85000000000001,0)" xlink:href="#aw"/></g><path fill="#303030" d="M205 0l-28-72H64L36 0H1l101-248h38L239 0h-34zm-38-99l-47-123c-12 45-31 82-46 123h93" id="aI"/><path fill="#303030" d="M24 0v-261h32V0H24" id="aJ"/><path fill="#303030" d="M117-194c89-4 53 116 60 194h-32v-121c0-31-8-49-39-48C34-167 62-67 57 0H25l-1-190h30c1 10-1 24 2 32 11-22 29-35 61-36" id="aK"/><g id="i"><use transform="matrix(0.05,0,0,0.05,0,0)" xlink:href="#aI"/><use transform="matrix(0.05,0,0,0.05,12,0)" xlink:href="#ad"/><use transform="matrix(0.05,0,0,0.05,22,0)" xlink:href="#ad"/><use transform="matrix(0.05,0,0,0.05,32,0)" xlink:href="#aJ"/><use transform="matrix(0.05,0,0,0.05,35.95,0)" xlink:href="#ah"/><use transform="matrix(0.05,0,0,0.05,39.900000000000006,0)" xlink:href="#al"/><use transform="matrix(0.05,0,0,0.05,49.900000000000006,0)" xlink:href="#aK"/><use transform="matrix(0.05,0,0,0.05,59.900000000000006,0)" xlink:href="#am"/><use transform="matrix(0.05,0,0,0.05,68.9,0)" xlink:href="#aj"/></g><path fill="#303030" d="M119 0H84L31-248h34l41 218 126-218h36" id="aL"/><path fill="#303030" d="M20-101c0-91 52-143 145-150 126-9 127 168 53 223-23 17-55 32-93 32C57 4 20-33 20-101zm216-33c5-57-18-91-73-90-77 1-110 51-110 125 0 49 23 75 73 75 72-1 104-45 110-110" id="aM"/><path fill="#303030" d="M68-162c25-46 127-43 121 31C183-60 169 1 98 4 69 5 53-11 43-31L36 0H5l52-261h31zm88 36c2-27-9-43-34-43-55 0-70 51-70 103 0 29 15 45 43 46 52 0 58-58 61-106" id="aN"/><path fill="#303030" d="M51-231l6-30h31l-6 30H51zM33 24C28 60 2 84-40 72c3-12-1-29 18-22C-5 49-1 37 2 19l41-209h32" id="aO"/><g id="j"><use transform="matrix(0.05,0,0,0.05,0,0)" xlink:href="#aL"/><use transform="matrix(0.05,0,0,0.05,11.35,0)" xlink:href="#at"/><use transform="matrix(0.05,0,0,0.05,21.35,0)" xlink:href="#ar"/><use transform="matrix(0.05,0,0,0.05,25.3,0)" xlink:href="#aD"/><use transform="matrix(0.05,0,0,0.05,35.3,0)" xlink:href="#aw"/><use transform="matrix(0.05,0,0,0.05,45.3,0)" xlink:href="#aM"/><use transform="matrix(0.05,0,0,0.05,59.29999999999999,0)" xlink:href="#aN"/><use transform="matrix(0.05,0,0,0.05,69.3,0)" xlink:href="#aO"/><use transform="matrix(0.05,0,0,0.05,73.25,0)" xlink:href="#aw"/><use transform="matrix(0.05,0,0,0.05,83.25,0)" xlink:href="#av"/><use transform="matrix(0.05,0,0,0.05,92.25,0)" xlink:href="#aG"/></g><path d="M135-194c53 0 70 44 70 98 0 56-19 98-73 100-31 1-45-17-59-34 3 33 2 69 2 105H25l-1-265h48c2 10 0 23 3 31 11-24 29-35 60-35zM114-30c33 0 39-31 40-66 0-38-9-64-40-64-56 0-55 130 0 130" id="aP"/><path d="M25 0v-261h50V0H25" id="aQ"/><path d="M238-95c0 69-44 99-111 99C63 4 22-25 22-93v-155h51v151c-1 38 19 59 55 60 90 1 49-130 58-211h52v153" id="aR"/><path d="M137-138c1-29-70-34-71-4 15 46 118 7 119 86 1 83-164 76-172 9l43-7c4 19 20 25 44 25 33 8 57-30 24-41C81-84 22-81 20-136c-2-80 154-74 161-7" id="aS"/><g id="k"><use transform="matrix(0.05,0,0,0.05,0,0)" xlink:href="#Y"/><use transform="matrix(0.05,0,0,0.05,5,0)" xlink:href="#Z"/><use transform="matrix(0.05,0,0,0.05,17.950000000000003,0)" xlink:href="#aP"/><use transform="matrix(0.05,0,0,0.05,28.900000000000006,0)" xlink:href="#aP"/><use transform="matrix(0.05,0,0,0.05,39.85000000000001,0)" xlink:href="#aQ"/><use transform="matrix(0.05,0,0,0.05,44.85000000000001,0)" xlink:href="#P"/><use transform="matrix(0.05,0,0,0.05,49.85000000000001,0)" xlink:href="#V"/><use transform="matrix(0.05,0,0,0.05,59.85,0)" xlink:href="#Q"/><use transform="matrix(0.05,0,0,0.05,70.80000000000001,0)" xlink:href="#W"/><use transform="matrix(0.05,0,0,0.05,80.80000000000001,0)" xlink:href="#S"/><use transform="matrix(0.05,0,0,0.05,90.80000000000001,0)" xlink:href="#aR"/><use transform="matrix(0.05,0,0,0.05,103.75,0)" xlink:href="#aS"/><use transform="matrix(0.05,0,0,0.05,113.75,0)" xlink:href="#V"/><use transform="matrix(0.05,0,0,0.05,123.75,0)" xlink:href="#aa"/><use transform="matrix(0.05,0,0,0.05,134.70000000000002,0)" xlink:href="#S"/><use transform="matrix(0.05,0,0,0.05,144.70000000000002,0)" xlink:href="#Y"/><use transform="matrix(0.05,0,0,0.05,149.70000000000002,0)" xlink:href="#Q"/><use transform="matrix(0.05,0,0,0.05,160.65,0)" xlink:href="#U"/><use transform="matrix(0.05,0,0,0.05,166.6,0)" xlink:href="#ac"/></g><g id="l"><use transform="matrix(0.05,0,0,0.05,0,0)" xlink:href="#aI"/><use transform="matrix(0.05,0,0,0.05,12,0)" xlink:href="#ai"/><use transform="matrix(0.05,0,0,0.05,22,0)" xlink:href="#ai"/><use transform="matrix(0.05,0,0,0.05,32,0)" xlink:href="#ae"/><use transform="matrix(0.05,0,0,0.05,37.95,0)" xlink:href="#aj"/><use transform="matrix(0.05,0,0,0.05,47.95,0)" xlink:href="#ak"/><use transform="matrix(0.05,0,0,0.05,56.95,0)" xlink:href="#ak"/></g><path fill="#303030" d="M232-93c-1 65-40 97-104 97C67 4 28-28 28-90v-158h33c8 89-33 224 67 224 102 0 64-133 71-224h33v155" id="aT"/><path fill="#303030" d="M177-190C167-65 218 103 67 71c-23-6-38-20-44-43l32-5c15 47 100 32 89-28v-30C133-14 115 1 83 1 29 1 15-40 15-95c0-56 16-97 71-98 29-1 48 16 59 35 1-10 0-23 2-32h30zM94-22c36 0 50-32 50-73 0-42-14-75-50-75-39 0-46 34-46 75s6 73 46 73" id="aU"/><path fill="#303030" d="M127-220V0H93v-220H8v-28h204v28h-85" id="aV"/><g id="m"><use transform="matrix(0.05,0,0,0.05,0,0)" xlink:href="#aI"/><use transform="matrix(0.05,0,0,0.05,12,0)" xlink:href="#ad"/><use transform="matrix(0.05,0,0,0.05,22,0)" xlink:href="#ad"/><use transform="matrix(0.05,0,0,0.05,32,0)" xlink:href="#aJ"/><use transform="matrix(0.05,0,0,0.05,35.95,0)" xlink:href="#ah"/><use transform="matrix(0.05,0,0,0.05,39.900000000000006,0)" xlink:href="#al"/><use transform="matrix(0.05,0,0,0.05,49.900000000000006,0)" xlink:href="#aK"/><use transform="matrix(0.05,0,0,0.05,59.900000000000006,0)" xlink:href="#am"/><use transform="matrix(0.05,0,0,0.05,68.9,0)" xlink:href="#aj"/><use transform="matrix(0.05,0,0,0.05,78.9,0)" xlink:href="#aT"/><use transform="matrix(0.05,0,0,0.05,91.85000000000001,0)" xlink:href="#ak"/><use transform="matrix(0.05,0,0,0.05,100.85000000000001,0)" xlink:href="#al"/><use transform="matrix(0.05,0,0,0.05,110.85000000000001,0)" xlink:href="#aU"/><use transform="matrix(0.05,0,0,0.05,120.85000000000001,0)" xlink:href="#aj"/><use transform="matrix(0.05,0,0,0.05,130.85000000000002,0)" xlink:href="#aV"/><use transform="matrix(0.05,0,0,0.05,139.8,0)" xlink:href="#af"/><use transform="matrix(0.05,0,0,0.05,149.8,0)" xlink:href="#an"/><use transform="matrix(0.05,0,0,0.05,154.8,0)" xlink:href="#al"/><use transform="matrix(0.05,0,0,0.05,164.8,0)" xlink:href="#aJ"/></g><path fill="#303030" d="M212-179c-10-28-35-45-73-45-59 0-87 40-87 99 0 60 29 101 89 101 43 0 62-24 78-52l27 14C228-24 195 4 139 4 59 4 22-46 18-125c-6-104 99-153 187-111 19 9 31 26 39 46" id="aW"/><path fill="#303030" d="M84 4C-5 8 30-112 23-190h32v120c0 31 7 50 39 49 72-2 45-101 50-169h31l1 190h-30c-1-10 1-25-2-33-11 22-28 36-60 37" id="aX"/><path fill="#303030" d="M210-169c-67 3-38 105-44 169h-31v-121c0-29-5-50-35-48C34-165 62-65 56 0H25l-1-190h30c1 10-1 24 2 32 10-44 99-50 107 0 11-21 27-35 58-36 85-2 47 119 55 194h-31v-121c0-29-5-49-35-48" id="aY"/><g id="n"><use transform="matrix(0.05,0,0,0.05,0,0)" xlink:href="#aW"/><use transform="matrix(0.05,0,0,0.05,12.950000000000001,0)" xlink:href="#af"/><use transform="matrix(0.05,0,0,0.05,22.950000000000003,0)" xlink:href="#aK"/><use transform="matrix(0.05,0,0,0.05,32.95,0)" xlink:href="#ak"/><use transform="matrix(0.05,0,0,0.05,41.95,0)" xlink:href="#aX"/><use transform="matrix(0.05,0,0,0.05,51.95,0)" xlink:href="#aY"/><use transform="matrix(0.05,0,0,0.05,66.9,0)" xlink:href="#ad"/><use transform="matrix(0.05,0,0,0.05,76.9,0)" xlink:href="#an"/><use transform="matrix(0.05,0,0,0.05,81.9,0)" xlink:href="#ah"/><use transform="matrix(0.05,0,0,0.05,85.85000000000001,0)" xlink:href="#af"/><use transform="matrix(0.05,0,0,0.05,95.85000000000001,0)" xlink:href="#aK"/><use transform="matrix(0.05,0,0,0.05,105.85000000000001,0)" xlink:href="#aV"/><use transform="matrix(0.05,0,0,0.05,114.80000000000001,0)" xlink:href="#af"/><use transform="matrix(0.05,0,0,0.05,124.80000000000001,0)" xlink:href="#an"/><use transform="matrix(0.05,0,0,0.05,129.8,0)" xlink:href="#al"/><use transform="matrix(0.05,0,0,0.05,139.8,0)" xlink:href="#aJ"/></g><path fill="#303030" d="M33 0v-248h34V0H33" id="aZ"/><g id="o"><use transform="matrix(0.05,0,0,0.05,0,0)" xlink:href="#aV"/><use transform="matrix(0.05,0,0,0.05,10.3,0)" xlink:href="#ah"/><use transform="matrix(0.05,0,0,0.05,14.25,0)" xlink:href="#aY"/><use transform="matrix(0.05,0,0,0.05,29.200000000000003,0)" xlink:href="#aj"/><use transform="matrix(0.05,0,0,0.05,39.2,0)" xlink:href="#aZ"/><use transform="matrix(0.05,0,0,0.05,44.2,0)" xlink:href="#aK"/><use transform="matrix(0.05,0,0,0.05,54.2,0)" xlink:href="#an"/><use transform="matrix(0.05,0,0,0.05,59.2,0)" xlink:href="#aj"/><use transform="matrix(0.05,0,0,0.05,69.2,0)" xlink:href="#ae"/><use transform="matrix(0.05,0,0,0.05,75.15,0)" xlink:href="#ag"/><use transform="matrix(0.05,0,0,0.05,84.15,0)" xlink:href="#al"/><use transform="matrix(0.05,0,0,0.05,94.15,0)" xlink:href="#aJ"/></g><g id="p"><use transform="matrix(0.05,0,0,0.05,0,0)" xlink:href="#aT"/><use transform="matrix(0.05,0,0,0.05,12.950000000000001,0)" xlink:href="#ak"/><use transform="matrix(0.05,0,0,0.05,21.950000000000003,0)" xlink:href="#al"/><use transform="matrix(0.05,0,0,0.05,31.950000000000003,0)" xlink:href="#aU"/><use transform="matrix(0.05,0,0,0.05,41.95,0)" xlink:href="#aj"/><use transform="matrix(0.05,0,0,0.05,51.95,0)" xlink:href="#aV"/><use transform="matrix(0.05,0,0,0.05,62.25,0)" xlink:href="#ah"/><use transform="matrix(0.05,0,0,0.05,66.2,0)" xlink:href="#aY"/><use transform="matrix(0.05,0,0,0.05,81.15,0)" xlink:href="#aj"/><use transform="matrix(0.05,0,0,0.05,91.15,0)" xlink:href="#aZ"/><use transform="matrix(0.05,0,0,0.05,96.15,0)" xlink:href="#aK"/><use transform="matrix(0.05,0,0,0.05,106.15,0)" xlink:href="#an"/><use transform="matrix(0.05,0,0,0.05,111.15,0)" xlink:href="#aj"/><use transform="matrix(0.05,0,0,0.05,121.15,0)" xlink:href="#ae"/><use transform="matrix(0.05,0,0,0.05,127.10000000000001,0)" xlink:href="#ag"/><use transform="matrix(0.05,0,0,0.05,136.10000000000002,0)" xlink:href="#al"/><use transform="matrix(0.05,0,0,0.05,146.10000000000002,0)" xlink:href="#aJ"/></g><path fill="#303030" d="M27 0v-27h64v-190l-56 39v-29l58-41h29v221h61V0H27" id="ba"/><use transform="matrix(0.05,0,0,0.05,0,0)" xlink:href="#ba" id="q"/><path fill="#303030" d="M80-196l47-18 7 23-49 13 32 44-20 13-27-46-27 45-21-12 33-44-49-13 8-23 47 19-2-53h23" id="bb"/><use transform="matrix(0.05,0,0,0.05,0,0)" xlink:href="#bb" id="r"/><path fill="#303030" d="M185-189c-5-48-123-54-124 2 14 75 158 14 163 119 3 78-121 87-175 55-17-10-28-26-33-46l33-7c5 56 141 63 141-1 0-78-155-14-162-118-5-82 145-84 179-34 5 7 8 16 11 25" id="bc"/><g id="s"><use transform="matrix(0.05,0,0,0.05,0,0)" xlink:href="#bc"/><use transform="matrix(0.05,0,0,0.05,12,0)" xlink:href="#ah"/><use transform="matrix(0.05,0,0,0.05,15.949999999999998,0)" xlink:href="#an"/><use transform="matrix(0.05,0,0,0.05,20.95,0)" xlink:href="#aj"/></g><path fill="#303030" d="M118-107v75H92v-75H18v-26h74v-75h26v75h74v26h-74" id="bd"/><use transform="matrix(0.05,0,0,0.05,0,0)" xlink:href="#bd" id="t"/><path fill="#303030" d="M240 0l2-218c-23 76-54 145-80 218h-23L58-218 59 0H30v-248h44l77 211c21-75 51-140 76-211h43V0h-30" id="be"/><path fill="#303030" d="M33-154v-36h34v36H33zM33 0v-36h34V0H33" id="bf"/><g id="u"><use transform="matrix(0.05,0,0,0.05,0,0)" xlink:href="#be"/><use transform="matrix(0.05,0,0,0.05,14.950000000000001,0)" xlink:href="#al"/><use transform="matrix(0.05,0,0,0.05,24.950000000000003,0)" xlink:href="#ah"/><use transform="matrix(0.05,0,0,0.05,28.900000000000002,0)" xlink:href="#aK"/><use transform="matrix(0.05,0,0,0.05,38.900000000000006,0)" xlink:href="#aI"/><use transform="matrix(0.05,0,0,0.05,50.900000000000006,0)" xlink:href="#ai"/><use transform="matrix(0.05,0,0,0.05,60.900000000000006,0)" xlink:href="#ai"/><use transform="matrix(0.05,0,0,0.05,70.9,0)" xlink:href="#ae"/><use transform="matrix(0.05,0,0,0.05,76.85000000000001,0)" xlink:href="#aj"/><use transform="matrix(0.05,0,0,0.05,86.85000000000001,0)" xlink:href="#ak"/><use transform="matrix(0.05,0,0,0.05,95.85000000000001,0)" xlink:href="#ak"/><use transform="matrix(0.05,0,0,0.05,104.85000000000001,0)" xlink:href="#bf"/></g><g id="v"><use transform="matrix(0.05,0,0,0.05,0,0)" xlink:href="#aI"/><use transform="matrix(0.05,0,0,0.05,12,0)" xlink:href="#ai"/><use transform="matrix(0.05,0,0,0.05,22,0)" xlink:href="#ai"/><use transform="matrix(0.05,0,0,0.05,32,0)" xlink:href="#ae"/><use transform="matrix(0.05,0,0,0.05,37.95,0)" xlink:href="#aj"/><use transform="matrix(0.05,0,0,0.05,47.95,0)" xlink:href="#ak"/><use transform="matrix(0.05,0,0,0.05,56.95,0)" xlink:href="#ak"/></g><path fill="#303030" d="M30-248c87 1 191-15 191 75 0 78-77 80-158 76V0H30v-248zm33 125c57 0 124 11 124-50 0-59-68-47-124-48v98" id="bg"/><path fill="#303030" d="M143 0L79-87 56-68V0H24v-261h32v163l83-92h37l-77 82L181 0h-38" id="bh"/><g id="w"><use transform="matrix(0.05,0,0,0.05,0,0)" xlink:href="#bg"/><use transform="matrix(0.05,0,0,0.05,12,0)" xlink:href="#aj"/><use transform="matrix(0.05,0,0,0.05,22,0)" xlink:href="#al"/><use transform="matrix(0.05,0,0,0.05,32,0)" xlink:href="#bh"/><use transform="matrix(0.05,0,0,0.05,41,0)" xlink:href="#bc"/><use transform="matrix(0.05,0,0,0.05,53,0)" xlink:href="#af"/><use transform="matrix(0.05,0,0,0.05,63,0)" xlink:href="#aJ"/><use transform="matrix(0.05,0,0,0.05,66.95,0)" xlink:href="#al"/><use transform="matrix(0.05,0,0,0.05,76.95,0)" xlink:href="#ae"/><use transform="matrix(0.05,0,0,0.05,82.9,0)" xlink:href="#aZ"/><use transform="matrix(0.05,0,0,0.05,87.9,0)" xlink:href="#aK"/><use transform="matrix(0.05,0,0,0.05,97.9,0)" xlink:href="#an"/><use transform="matrix(0.05,0,0,0.05,102.9,0)" xlink:href="#aj"/><use transform="matrix(0.05,0,0,0.05,112.9,0)" xlink:href="#ae"/><use transform="matrix(0.05,0,0,0.05,118.85000000000001,0)" xlink:href="#ag"/><use transform="matrix(0.05,0,0,0.05,127.85000000000001,0)" xlink:href="#al"/><use transform="matrix(0.05,0,0,0.05,137.85000000000002,0)" xlink:href="#aJ"/><use transform="matrix(0.05,0,0,0.05,141.8,0)" xlink:href="#bf"/></g><g id="x"><use transform="matrix(0.05,0,0,0.05,0,0)" xlink:href="#aV"/><use transform="matrix(0.05,0,0,0.05,10.3,0)" xlink:href="#ah"/><use transform="matrix(0.05,0,0,0.05,14.25,0)" xlink:href="#aY"/><use transform="matrix(0.05,0,0,0.05,29.200000000000003,0)" xlink:href="#aj"/><use transform="matrix(0.05,0,0,0.05,39.2,0)" xlink:href="#aZ"/><use transform="matrix(0.05,0,0,0.05,44.2,0)" xlink:href="#aK"/><use transform="matrix(0.05,0,0,0.05,54.2,0)" xlink:href="#an"/><use transform="matrix(0.05,0,0,0.05,59.2,0)" xlink:href="#aj"/><use transform="matrix(0.05,0,0,0.05,69.2,0)" xlink:href="#ae"/><use transform="matrix(0.05,0,0,0.05,75.15,0)" xlink:href="#ag"/><use transform="matrix(0.05,0,0,0.05,84.15,0)" xlink:href="#al"/><use transform="matrix(0.05,0,0,0.05,94.15,0)" xlink:href="#aJ"/></g><g id="y"><use transform="matrix(0.05,0,0,0.05,0,0)" xlink:href="#aW"/><use transform="matrix(0.05,0,0,0.05,12.950000000000001,0)" xlink:href="#af"/><use transform="matrix(0.05,0,0,0.05,22.950000000000003,0)" xlink:href="#aK"/><use transform="matrix(0.05,0,0,0.05,32.95,0)" xlink:href="#ak"/><use transform="matrix(0.05,0,0,0.05,41.95,0)" xlink:href="#aX"/><use transform="matrix(0.05,0,0,0.05,51.95,0)" xlink:href="#aY"/><use transform="matrix(0.05,0,0,0.05,66.9,0)" xlink:href="#ad"/><use transform="matrix(0.05,0,0,0.05,76.9,0)" xlink:href="#an"/><use transform="matrix(0.05,0,0,0.05,81.9,0)" xlink:href="#ah"/><use transform="matrix(0.05,0,0,0.05,85.85000000000001,0)" xlink:href="#af"/><use transform="matrix(0.05,0,0,0.05,95.85000000000001,0)" xlink:href="#aK"/></g><g id="z"><use transform="matrix(0.05,0,0,0.05,0,0)" xlink:href="#aW"/><use transform="matrix(0.05,0,0,0.05,12.950000000000001,0)" xlink:href="#af"/><use transform="matrix(0.05,0,0,0.05,22.950000000000003,0)" xlink:href="#aK"/><use transform="matrix(0.05,0,0,0.05,32.95,0)" xlink:href="#ak"/><use transform="matrix(0.05,0,0,0.05,41.95,0)" xlink:href="#aX"/><use transform="matrix(0.05,0,0,0.05,51.95,0)" xlink:href="#aY"/><use transform="matrix(0.05,0,0,0.05,66.9,0)" xlink:href="#ad"/><use transform="matrix(0.05,0,0,0.05,76.9,0)" xlink:href="#an"/><use transform="matrix(0.05,0,0,0.05,81.9,0)" xlink:href="#ah"/><use transform="matrix(0.05,0,0,0.05,85.85000000000001,0)" xlink:href="#af"/><use transform="matrix(0.05,0,0,0.05,95.85000000000001,0)" xlink:href="#aK"/><use transform="matrix(0.05,0,0,0.05,105.85000000000001,0)" xlink:href="#aV"/><use transform="matrix(0.05,0,0,0.05,114.80000000000001,0)" xlink:href="#af"/><use transform="matrix(0.05,0,0,0.05,124.80000000000001,0)" xlink:href="#an"/><use transform="matrix(0.05,0,0,0.05,129.8,0)" xlink:href="#al"/><use transform="matrix(0.05,0,0,0.05,139.8,0)" xlink:href="#aJ"/><use transform="matrix(0.05,0,0,0.05,143.75,0)" xlink:href="#bf"/></g><g id="A"><use transform="matrix(0.05,0,0,0.05,0,0)" xlink:href="#aW"/><use transform="matrix(0.05,0,0,0.05,12.950000000000001,0)" xlink:href="#af"/><use transform="matrix(0.05,0,0,0.05,22.950000000000003,0)" xlink:href="#aK"/><use transform="matrix(0.05,0,0,0.05,32.95,0)" xlink:href="#ak"/><use transform="matrix(0.05,0,0,0.05,41.95,0)" xlink:href="#aX"/><use transform="matrix(0.05,0,0,0.05,51.95,0)" xlink:href="#aY"/><use transform="matrix(0.05,0,0,0.05,66.9,0)" xlink:href="#ad"/><use transform="matrix(0.05,0,0,0.05,76.9,0)" xlink:href="#an"/><use transform="matrix(0.05,0,0,0.05,81.9,0)" xlink:href="#ah"/><use transform="matrix(0.05,0,0,0.05,85.85000000000001,0)" xlink:href="#af"/><use transform="matrix(0.05,0,0,0.05,95.85000000000001,0)" xlink:href="#aK"/><use transform="matrix(0.05,0,0,0.05,105.85000000000001,0)" xlink:href="#aV"/><use transform="matrix(0.05,0,0,0.05,114.80000000000001,0)" xlink:href="#af"/><use transform="matrix(0.05,0,0,0.05,124.80000000000001,0)" xlink:href="#an"/><use transform="matrix(0.05,0,0,0.05,129.8,0)" xlink:href="#al"/><use transform="matrix(0.05,0,0,0.05,139.8,0)" xlink:href="#aJ"/></g><g id="B"><use transform="matrix(0.05,0,0,0.05,0,0)" xlink:href="#aI"/><use transform="matrix(0.05,0,0,0.05,12,0)" xlink:href="#ad"/><use transform="matrix(0.05,0,0,0.05,22,0)" xlink:href="#ad"/><use transform="matrix(0.05,0,0,0.05,32,0)" xlink:href="#aJ"/><use transform="matrix(0.05,0,0,0.05,35.95,0)" xlink:href="#ah"/><use transform="matrix(0.05,0,0,0.05,39.900000000000006,0)" xlink:href="#al"/><use transform="matrix(0.05,0,0,0.05,49.900000000000006,0)" xlink:href="#aK"/><use transform="matrix(0.05,0,0,0.05,59.900000000000006,0)" xlink:href="#am"/><use transform="matrix(0.05,0,0,0.05,68.9,0)" xlink:href="#aj"/><use transform="matrix(0.05,0,0,0.05,78.9,0)" xlink:href="#aT"/><use transform="matrix(0.05,0,0,0.05,91.85000000000001,0)" xlink:href="#ak"/><use transform="matrix(0.05,0,0,0.05,100.85000000000001,0)" xlink:href="#al"/><use transform="matrix(0.05,0,0,0.05,110.85000000000001,0)" xlink:href="#aU"/><use transform="matrix(0.05,0,0,0.05,120.85000000000001,0)" xlink:href="#aj"/></g><g id="C"><use transform="matrix(0.05,0,0,0.05,0,0)" xlink:href="#aI"/><use transform="matrix(0.05,0,0,0.05,12,0)" xlink:href="#ad"/><use transform="matrix(0.05,0,0,0.05,22,0)" xlink:href="#ad"/><use transform="matrix(0.05,0,0,0.05,32,0)" xlink:href="#aJ"/><use transform="matrix(0.05,0,0,0.05,35.95,0)" xlink:href="#ah"/><use transform="matrix(0.05,0,0,0.05,39.900000000000006,0)" xlink:href="#al"/><use transform="matrix(0.05,0,0,0.05,49.900000000000006,0)" xlink:href="#aK"/><use transform="matrix(0.05,0,0,0.05,59.900000000000006,0)" xlink:href="#am"/><use transform="matrix(0.05,0,0,0.05,68.9,0)" xlink:href="#aj"/><use transform="matrix(0.05,0,0,0.05,78.9,0)" xlink:href="#aT"/><use transform="matrix(0.05,0,0,0.05,91.85000000000001,0)" xlink:href="#ak"/><use transform="matrix(0.05,0,0,0.05,100.85000000000001,0)" xlink:href="#al"/><use transform="matrix(0.05,0,0,0.05,110.85000000000001,0)" xlink:href="#aU"/><use transform="matrix(0.05,0,0,0.05,120.85000000000001,0)" xlink:href="#aj"/><use transform="matrix(0.05,0,0,0.05,130.85000000000002,0)" xlink:href="#aV"/><use transform="matrix(0.05,0,0,0.05,139.8,0)" xlink:href="#af"/><use transform="matrix(0.05,0,0,0.05,149.8,0)" xlink:href="#an"/><use transform="matrix(0.05,0,0,0.05,154.8,0)" xlink:href="#al"/><use transform="matrix(0.05,0,0,0.05,164.8,0)" xlink:href="#aJ"/><use transform="matrix(0.05,0,0,0.05,168.75,0)" xlink:href="#bf"/></g><g id="D"><use transform="matrix(0.05,0,0,0.05,0,0)" xlink:href="#aI"/><use transform="matrix(0.05,0,0,0.05,12,0)" xlink:href="#ad"/><use transform="matrix(0.05,0,0,0.05,22,0)" xlink:href="#ad"/><use transform="matrix(0.05,0,0,0.05,32,0)" xlink:href="#aJ"/><use transform="matrix(0.05,0,0,0.05,35.95,0)" xlink:href="#ah"/><use transform="matrix(0.05,0,0,0.05,39.900000000000006,0)" xlink:href="#al"/><use transform="matrix(0.05,0,0,0.05,49.900000000000006,0)" xlink:href="#aK"/><use transform="matrix(0.05,0,0,0.05,59.900000000000006,0)" xlink:href="#am"/><use transform="matrix(0.05,0,0,0.05,68.9,0)" xlink:href="#aj"/><use transform="matrix(0.05,0,0,0.05,78.9,0)" xlink:href="#aT"/><use transform="matrix(0.05,0,0,0.05,91.85000000000001,0)" xlink:href="#ak"/><use transform="matrix(0.05,0,0,0.05,100.85000000000001,0)" xlink:href="#al"/><use transform="matrix(0.05,0,0,0.05,110.85000000000001,0)" xlink:href="#aU"/><use transform="matrix(0.05,0,0,0.05,120.85000000000001,0)" xlink:href="#aj"/><use transform="matrix(0.05,0,0,0.05,130.85000000000002,0)" xlink:href="#aV"/><use transform="matrix(0.05,0,0,0.05,139.8,0)" xlink:href="#af"/><use transform="matrix(0.05,0,0,0.05,149.8,0)" xlink:href="#an"/><use transform="matrix(0.05,0,0,0.05,154.8,0)" xlink:href="#al"/><use transform="matrix(0.05,0,0,0.05,164.8,0)" xlink:href="#aJ"/></g><path fill="#303030" d="M106-169C34-169 62-67 57 0H25v-261h32l-1 103c12-21 28-36 61-36 89 0 53 116 60 194h-32v-121c2-32-8-49-39-48" id="bi"/><g id="E"><use transform="matrix(0.05,0,0,0.05,0,0)" xlink:href="#aI"/><use transform="matrix(0.05,0,0,0.05,12,0)" xlink:href="#ad"/><use transform="matrix(0.05,0,0,0.05,22,0)" xlink:href="#ad"/><use transform="matrix(0.05,0,0,0.05,32,0)" xlink:href="#aJ"/><use transform="matrix(0.05,0,0,0.05,35.95,0)" xlink:href="#ah"/><use transform="matrix(0.05,0,0,0.05,39.900000000000006,0)" xlink:href="#al"/><use transform="matrix(0.05,0,0,0.05,49.900000000000006,0)" xlink:href="#aK"/><use transform="matrix(0.05,0,0,0.05,59.900000000000006,0)" xlink:href="#am"/><use transform="matrix(0.05,0,0,0.05,68.9,0)" xlink:href="#aj"/><use transform="matrix(0.05,0,0,0.05,78.9,0)" xlink:href="#aT"/><use transform="matrix(0.05,0,0,0.05,91.85000000000001,0)" xlink:href="#ak"/><use transform="matrix(0.05,0,0,0.05,100.85000000000001,0)" xlink:href="#al"/><use transform="matrix(0.05,0,0,0.05,110.85000000000001,0)" xlink:href="#aU"/><use transform="matrix(0.05,0,0,0.05,120.85000000000001,0)" xlink:href="#aj"/><use transform="matrix(0.05,0,0,0.05,130.85000000000002,0)" xlink:href="#bc"/><use transform="matrix(0.05,0,0,0.05,142.85000000000002,0)" xlink:href="#am"/><use transform="matrix(0.05,0,0,0.05,151.85000000000002,0)" xlink:href="#bi"/><use transform="matrix(0.05,0,0,0.05,161.85000000000002,0)" xlink:href="#aj"/><use transform="matrix(0.05,0,0,0.05,171.85000000000002,0)" xlink:href="#ai"/><use transform="matrix(0.05,0,0,0.05,181.85000000000002,0)" xlink:href="#aX"/><use transform="matrix(0.05,0,0,0.05,191.85000000000002,0)" xlink:href="#aJ"/><use transform="matrix(0.05,0,0,0.05,195.8,0)" xlink:href="#aj"/></g><g id="F"><use transform="matrix(0.05,0,0,0.05,0,0)" xlink:href="#aT"/><use transform="matrix(0.05,0,0,0.05,12.950000000000001,0)" xlink:href="#ak"/><use transform="matrix(0.05,0,0,0.05,21.950000000000003,0)" xlink:href="#al"/><use transform="matrix(0.05,0,0,0.05,31.950000000000003,0)" xlink:href="#aU"/><use transform="matrix(0.05,0,0,0.05,41.95,0)" xlink:href="#aj"/><use transform="matrix(0.05,0,0,0.05,51.95,0)" xlink:href="#aZ"/><use transform="matrix(0.05,0,0,0.05,56.95,0)" xlink:href="#aK"/><use transform="matrix(0.05,0,0,0.05,66.95,0)" xlink:href="#an"/><use transform="matrix(0.05,0,0,0.05,71.95,0)" xlink:href="#aj"/><use transform="matrix(0.05,0,0,0.05,81.95,0)" xlink:href="#ae"/><use transform="matrix(0.05,0,0,0.05,87.9,0)" xlink:href="#ag"/><use transform="matrix(0.05,0,0,0.05,96.9,0)" xlink:href="#al"/><use transform="matrix(0.05,0,0,0.05,106.9,0)" xlink:href="#aJ"/><use transform="matrix(0.05,0,0,0.05,110.85000000000001,0)" xlink:href="#ak"/><use transform="matrix(0.05,0,0,0.05,119.85000000000001,0)" xlink:href="#bf"/></g><path fill="#303030" d="M233-177c-1 41-23 64-60 70L243 0h-38l-65-103H63V0H30v-248c88 3 205-21 203 71zM63-129c60-2 137 13 137-47 0-61-80-42-137-45v92" id="bj"/><path fill="#303030" d="M140-251c81 0 123 46 123 126C263-46 219 4 140 4 59 4 17-45 17-125s42-126 123-126zm0 227c63 0 89-41 89-101s-29-99-89-99c-61 0-89 39-89 99S79-25 140-24" id="bk"/><path fill="#303030" d="M179-190L93 31C79 59 56 82 12 73V49c39 6 53-20 64-50L1-190h34L92-34l54-156h33" id="bl"/><path fill="#303030" d="M18-100v-36l175-74v27L42-118l151 64v27" id="bm"/><path fill="#303030" d="M18-27v-27l151-64-151-65v-27l175 74v36" id="bn"/><g id="G"><use transform="matrix(0.05,0,0,0.05,0,0)" xlink:href="#aZ"/><use transform="matrix(0.05,0,0,0.05,5,0)" xlink:href="#bj"/><use transform="matrix(0.05,0,0,0.05,17.950000000000003,0)" xlink:href="#aj"/><use transform="matrix(0.05,0,0,0.05,27.950000000000003,0)" xlink:href="#al"/><use transform="matrix(0.05,0,0,0.05,37.95,0)" xlink:href="#ai"/><use transform="matrix(0.05,0,0,0.05,47.95,0)" xlink:href="#bk"/><use transform="matrix(0.05,0,0,0.05,61.95,0)" xlink:href="#aK"/><use transform="matrix(0.05,0,0,0.05,71.95,0)" xlink:href="#aJ"/><use transform="matrix(0.05,0,0,0.05,75.9,0)" xlink:href="#bl"/><use transform="matrix(0.05,0,0,0.05,84.9,0)" xlink:href="#aW"/><use transform="matrix(0.05,0,0,0.05,97.85000000000001,0)" xlink:href="#af"/><use transform="matrix(0.05,0,0,0.05,107.85000000000001,0)" xlink:href="#aJ"/><use transform="matrix(0.05,0,0,0.05,111.80000000000001,0)" xlink:href="#aJ"/><use transform="matrix(0.05,0,0,0.05,115.75,0)" xlink:href="#aj"/><use transform="matrix(0.05,0,0,0.05,125.75,0)" xlink:href="#am"/><use transform="matrix(0.05,0,0,0.05,134.75,0)" xlink:href="#an"/><use transform="matrix(0.05,0,0,0.05,139.75,0)" xlink:href="#ah"/><use transform="matrix(0.05,0,0,0.05,143.7,0)" xlink:href="#af"/><use transform="matrix(0.05,0,0,0.05,153.7,0)" xlink:href="#aK"/><use transform="matrix(0.05,0,0,0.05,163.7,0)" xlink:href="#bm"/><use transform="matrix(0.05,0,0,0.05,174.2,0)" xlink:href="#aT"/><use transform="matrix(0.05,0,0,0.05,187.14999999999998,0)" xlink:href="#ak"/><use transform="matrix(0.05,0,0,0.05,196.14999999999998,0)" xlink:href="#al"/><use transform="matrix(0.05,0,0,0.05,206.14999999999998,0)" xlink:href="#aU"/><use transform="matrix(0.05,0,0,0.05,216.14999999999998,0)" xlink:href="#aj"/><use transform="matrix(0.05,0,0,0.05,226.14999999999998,0)" xlink:href="#aV"/><use transform="matrix(0.05,0,0,0.05,236.44999999999996,0)" xlink:href="#ah"/><use transform="matrix(0.05,0,0,0.05,240.39999999999998,0)" xlink:href="#aY"/><use transform="matrix(0.05,0,0,0.05,255.3499999999999,0)" xlink:href="#aj"/><use transform="matrix(0.05,0,0,0.05,265.3499999999999,0)" xlink:href="#aZ"/><use transform="matrix(0.05,0,0,0.05,270.3499999999999,0)" xlink:href="#aK"/><use transform="matrix(0.05,0,0,0.05,280.3499999999999,0)" xlink:href="#an"/><use transform="matrix(0.05,0,0,0.05,285.3499999999999,0)" xlink:href="#aj"/><use transform="matrix(0.05,0,0,0.05,295.3499999999999,0)" xlink:href="#ae"/><use transform="matrix(0.05,0,0,0.05,301.2999999999999,0)" xlink:href="#ag"/><use transform="matrix(0.05,0,0,0.05,310.2999999999999,0)" xlink:href="#al"/><use transform="matrix(0.05,0,0,0.05,320.2999999999999,0)" xlink:href="#aJ"/><use transform="matrix(0.05,0,0,0.05,324.2499999999999,0)" xlink:href="#bn"/></g><path d="M27 0v-27h64v-190l-56 39v-29l58-41h29v221h61V0H27" id="bo"/><use transform="matrix(0.05,0,0,0.05,0,0)" xlink:href="#bo" id="H"/><g id="I"><use transform="matrix(0.05,0,0,0.05,0,0)" xlink:href="#ae"/><use transform="matrix(0.05,0,0,0.05,5.95,0)" xlink:href="#aj"/><use transform="matrix(0.05,0,0,0.05,15.949999999999998,0)" xlink:href="#am"/><use transform="matrix(0.05,0,0,0.05,24.95,0)" xlink:href="#al"/><use transform="matrix(0.05,0,0,0.05,34.95,0)" xlink:href="#aJ"/><use transform="matrix(0.05,0,0,0.05,38.900000000000006,0)" xlink:href="#am"/><use transform="matrix(0.05,0,0,0.05,47.900000000000006,0)" xlink:href="#aX"/><use transform="matrix(0.05,0,0,0.05,57.900000000000006,0)" xlink:href="#aJ"/><use transform="matrix(0.05,0,0,0.05,61.85,0)" xlink:href="#al"/><use transform="matrix(0.05,0,0,0.05,71.85000000000001,0)" xlink:href="#an"/><use transform="matrix(0.05,0,0,0.05,76.85000000000001,0)" xlink:href="#aj"/><use transform="matrix(0.05,0,0,0.05,86.85000000000001,0)" xlink:href="#ak"/></g><path d="M67-125c0 53 21 87 73 88 37 1 54-22 65-47l45 17C233-25 199 4 140 4 58 4 20-42 15-125 8-235 124-281 211-232c18 10 29 29 36 50l-46 12c-8-25-30-41-62-41-52 0-71 34-72 86" id="bp"/><path d="M85 4C-2 5 27-109 22-190h50c7 57-23 150 33 157 60-5 35-97 40-157h50l1 190h-47c-2-12 1-28-3-38-12 25-28 42-61 42" id="bq"/><path d="M220-157c-53 9-28 100-34 157h-49v-107c1-27-5-49-29-50C55-147 81-57 75 0H25l-1-190h47c2 12-1 28 3 38 10-53 101-56 108 0 13-22 24-43 59-42 82 1 51 116 57 194h-49v-107c-1-25-5-48-29-50" id="br"/><g id="J"><use transform="matrix(0.05,0,0,0.05,0,0)" xlink:href="#Y"/><use transform="matrix(0.05,0,0,0.05,5,0)" xlink:href="#bp"/><use transform="matrix(0.05,0,0,0.05,17.950000000000003,0)" xlink:href="#ac"/><use transform="matrix(0.05,0,0,0.05,28.900000000000006,0)" xlink:href="#Q"/><use transform="matrix(0.05,0,0,0.05,39.85000000000001,0)" xlink:href="#aS"/><use transform="matrix(0.05,0,0,0.05,49.85000000000001,0)" xlink:href="#bq"/><use transform="matrix(0.05,0,0,0.05,60.80000000000001,0)" xlink:href="#br"/><use transform="matrix(0.05,0,0,0.05,76.80000000000001,0)" xlink:href="#aP"/><use transform="matrix(0.05,0,0,0.05,87.75000000000001,0)" xlink:href="#R"/><use transform="matrix(0.05,0,0,0.05,93.70000000000002,0)" xlink:href="#P"/><use transform="matrix(0.05,0,0,0.05,98.70000000000002,0)" xlink:href="#ac"/><use transform="matrix(0.05,0,0,0.05,109.65000000000003,0)" xlink:href="#Q"/><use transform="matrix(0.05,0,0,0.05,120.60000000000002,0)" xlink:href="#bp"/><use transform="matrix(0.05,0,0,0.05,133.55,0)" xlink:href="#V"/><use transform="matrix(0.05,0,0,0.05,143.55,0)" xlink:href="#aQ"/><use transform="matrix(0.05,0,0,0.05,148.55,0)" xlink:href="#W"/><use transform="matrix(0.05,0,0,0.05,158.55,0)" xlink:href="#bq"/><use transform="matrix(0.05,0,0,0.05,169.5,0)" xlink:href="#aQ"/><use transform="matrix(0.05,0,0,0.05,174.5,0)" xlink:href="#V"/><use transform="matrix(0.05,0,0,0.05,184.5,0)" xlink:href="#R"/><use transform="matrix(0.05,0,0,0.05,190.45,0)" xlink:href="#ac"/><use transform="matrix(0.05,0,0,0.05,201.39999999999998,0)" xlink:href="#T"/></g><g id="K"><use transform="matrix(0.05,0,0,0.05,0,0)" xlink:href="#bj"/><use transform="matrix(0.05,0,0,0.05,12.950000000000001,0)" xlink:href="#aj"/><use transform="matrix(0.05,0,0,0.05,22.950000000000003,0)" xlink:href="#al"/><use transform="matrix(0.05,0,0,0.05,32.95,0)" xlink:href="#ai"/><use transform="matrix(0.05,0,0,0.05,42.95,0)" xlink:href="#bk"/><use transform="matrix(0.05,0,0,0.05,56.95,0)" xlink:href="#aK"/><use transform="matrix(0.05,0,0,0.05,66.95,0)" xlink:href="#aJ"/><use transform="matrix(0.05,0,0,0.05,70.9,0)" xlink:href="#bl"/><use transform="matrix(0.05,0,0,0.05,79.9,0)" xlink:href="#bc"/><use transform="matrix(0.05,0,0,0.05,91.9,0)" xlink:href="#ah"/><use transform="matrix(0.05,0,0,0.05,95.85000000000001,0)" xlink:href="#an"/><use transform="matrix(0.05,0,0,0.05,100.85000000000001,0)" xlink:href="#aj"/><use transform="matrix(0.05,0,0,0.05,110.85000000000001,0)" xlink:href="#bc"/><use transform="matrix(0.05,0,0,0.05,122.85000000000001,0)" xlink:href="#aj"/><use transform="matrix(0.05,0,0,0.05,132.85000000000002,0)" xlink:href="#an"/><use transform="matrix(0.05,0,0,0.05,137.85000000000002,0)" xlink:href="#an"/><use transform="matrix(0.05,0,0,0.05,142.85000000000002,0)" xlink:href="#ah"/><use transform="matrix(0.05,0,0,0.05,146.8,0)" xlink:href="#aK"/><use transform="matrix(0.05,0,0,0.05,156.8,0)" xlink:href="#aU"/><use transform="matrix(0.05,0,0,0.05,166.8,0)" xlink:href="#ak"/><use transform="matrix(0.05,0,0,0.05,175.8,0)" xlink:href="#bf"/></g><g id="L"><use transform="matrix(0.05,0,0,0.05,0,0)" xlink:href="#aZ"/><use transform="matrix(0.05,0,0,0.05,5,0)" xlink:href="#bj"/><use transform="matrix(0.05,0,0,0.05,17.950000000000003,0)" xlink:href="#aj"/><use transform="matrix(0.05,0,0,0.05,27.950000000000003,0)" xlink:href="#al"/><use transform="matrix(0.05,0,0,0.05,37.95,0)" xlink:href="#ai"/><use transform="matrix(0.05,0,0,0.05,47.95,0)" xlink:href="#bk"/><use transform="matrix(0.05,0,0,0.05,61.95,0)" xlink:href="#aK"/><use transform="matrix(0.05,0,0,0.05,71.95,0)" xlink:href="#aJ"/><use transform="matrix(0.05,0,0,0.05,75.9,0)" xlink:href="#bl"/><use transform="matrix(0.05,0,0,0.05,84.9,0)" xlink:href="#bc"/><use transform="matrix(0.05,0,0,0.05,96.9,0)" xlink:href="#ah"/><use transform="matrix(0.05,0,0,0.05,100.85000000000001,0)" xlink:href="#an"/><use transform="matrix(0.05,0,0,0.05,105.85000000000001,0)" xlink:href="#aj"/><use transform="matrix(0.05,0,0,0.05,115.85000000000001,0)" xlink:href="#bc"/><use transform="matrix(0.05,0,0,0.05,127.85000000000001,0)" xlink:href="#aj"/><use transform="matrix(0.05,0,0,0.05,137.85000000000002,0)" xlink:href="#an"/><use transform="matrix(0.05,0,0,0.05,142.85000000000002,0)" xlink:href="#an"/><use transform="matrix(0.05,0,0,0.05,147.85000000000002,0)" xlink:href="#ah"/><use transform="matrix(0.05,0,0,0.05,151.8,0)" xlink:href="#aK"/><use transform="matrix(0.05,0,0,0.05,161.8,0)" xlink:href="#aU"/><use transform="matrix(0.05,0,0,0.05,171.8,0)" xlink:href="#ak"/></g><path fill="#303030" d="M87 75C49 33 22-17 22-94c0-76 28-126 65-167h31c-38 41-64 92-64 168S80 34 118 75H87" id="bs"/><path fill="#303030" d="M33-261c38 41 65 92 65 168S71 34 33 75H2C39 34 66-17 66-93S39-220 2-261h31" id="bt"/><g id="M"><use transform="matrix(0.05,0,0,0.05,0,0)" xlink:href="#bj"/><use transform="matrix(0.05,0,0,0.05,12.950000000000001,0)" xlink:href="#aj"/><use transform="matrix(0.05,0,0,0.05,22.950000000000003,0)" xlink:href="#am"/><use transform="matrix(0.05,0,0,0.05,31.950000000000003,0)" xlink:href="#al"/><use transform="matrix(0.05,0,0,0.05,41.95,0)" xlink:href="#aJ"/><use transform="matrix(0.05,0,0,0.05,45.900000000000006,0)" xlink:href="#am"/><use transform="matrix(0.05,0,0,0.05,54.900000000000006,0)" xlink:href="#aX"/><use transform="matrix(0.05,0,0,0.05,64.9,0)" xlink:href="#aJ"/><use transform="matrix(0.05,0,0,0.05,68.85000000000001,0)" xlink:href="#al"/><use transform="matrix(0.05,0,0,0.05,78.85000000000001,0)" xlink:href="#an"/><use transform="matrix(0.05,0,0,0.05,83.85000000000001,0)" xlink:href="#aj"/><use transform="matrix(0.05,0,0,0.05,93.85000000000001,0)" xlink:href="#bs"/><use transform="matrix(0.05,0,0,0.05,99.80000000000001,0)" xlink:href="#bt"/></g><path d="M88-194c31-1 46 15 58 34l-1-101h50l1 261h-48c-2-10 0-23-3-31C134-8 116 4 84 4 32 4 16-41 15-95c0-56 19-97 73-99zm17 164c33 0 40-30 41-66 1-37-9-64-41-64s-38 30-39 65c0 43 13 65 39 65" id="bu"/><path d="M140-251c80 0 125 45 125 126S219 4 139 4C58 4 15-44 15-125s44-126 125-126zm-1 214c52 0 73-35 73-88 0-50-21-86-72-86-52 0-73 35-73 86s22 88 72 88" id="bv"/><path d="M123 10C108 53 80 86 19 72V37c35 8 53-11 59-39L3-190h52l48 148c12-52 28-100 44-148h51" id="bw"/><path d="M169-182c-1-43-94-46-97-3 18 66 151 10 154 114 3 95-165 93-204 36-6-8-10-19-12-30l50-8c3 46 112 56 116 5-17-69-150-10-154-114-4-87 153-88 188-35 5 8 8 18 10 28" id="bx"/><g id="N"><use transform="matrix(0.05,0,0,0.05,0,0)" xlink:href="#Y"/><use transform="matrix(0.05,0,0,0.05,5,0)" xlink:href="#ab"/><use transform="matrix(0.05,0,0,0.05,17.950000000000003,0)" xlink:href="#S"/><use transform="matrix(0.05,0,0,0.05,27.950000000000003,0)" xlink:href="#V"/><use transform="matrix(0.05,0,0,0.05,37.95,0)" xlink:href="#bu"/><use transform="matrix(0.05,0,0,0.05,48.900000000000006,0)" xlink:href="#bv"/><use transform="matrix(0.05,0,0,0.05,62.900000000000006,0)" xlink:href="#Q"/><use transform="matrix(0.05,0,0,0.05,73.85000000000001,0)" xlink:href="#aQ"/><use transform="matrix(0.05,0,0,0.05,78.85000000000001,0)" xlink:href="#bw"/><use transform="matrix(0.05,0,0,0.05,88.85000000000001,0)" xlink:href="#bx"/><use transform="matrix(0.05,0,0,0.05,100.85000000000001,0)" xlink:href="#P"/><use transform="matrix(0.05,0,0,0.05,105.85000000000001,0)" xlink:href="#R"/><use transform="matrix(0.05,0,0,0.05,111.80000000000001,0)" xlink:href="#S"/><use transform="matrix(0.05,0,0,0.05,121.80000000000001,0)" xlink:href="#bx"/><use transform="matrix(0.05,0,0,0.05,133.8,0)" xlink:href="#S"/><use transform="matrix(0.05,0,0,0.05,143.8,0)" xlink:href="#R"/><use transform="matrix(0.05,0,0,0.05,149.75,0)" xlink:href="#R"/><use transform="matrix(0.05,0,0,0.05,155.7,0)" xlink:href="#P"/><use transform="matrix(0.05,0,0,0.05,160.7,0)" xlink:href="#Q"/><use transform="matrix(0.05,0,0,0.05,171.64999999999998,0)" xlink:href="#aa"/><use transform="matrix(0.05,0,0,0.05,182.59999999999997,0)" xlink:href="#aS"/></g></defs></g></svg>